<svg xmlns="http://www.w3.org/2000/svg" viewBox="0 0 1012.09 285.02"><defs><style>.cls-1,.cls-2{fill:#2c7c0a;}.cls-2{font-size:84.17px;font-family:Arial-BoldMT, Arial;font-weight:700;}</style></defs><g id="Layer_2" data-name="Layer 2"><g id="Layer_2-2" data-name="Layer 2"><path class="cls-1" d="M713.23,174.87l33.1,13.47L733,199.65l-1.65,1.4,1.25,1.77a10.21,10.21,0,0,0,5.18,3.82c1.91.62,5.07,1.6,9.23,2.73a285.53,285.53,0,0,0,72.33,9.55c32.66,0,63-6,90.11-17.86l4-1.76-3.69-2.4-13.22-8.59L928.29,175,920,200.42l-.65,2,1.88.89L945,214.57l-36.72,13.2-1.57.57v13c-7.41,3-43.17,16.3-90.1,16.3A232.17,232.17,0,0,1,737.12,244l-.16-13,0-1.66-1.56-.55-35.53-12.5,23.68-12.62,1.94-1-.89-2-11.35-25.69m-4.53-4.41,13.72,31.06L694,216.68,734.59,231l.19,14.65A234.25,234.25,0,0,0,816.59,260c53.69,0,92.47-17.08,92.47-17.08V230l42.08-15.13-28.91-13.72,9.92-30.38-40.61,17.09,17,11c-30.68,13.4-61.89,17.66-89.16,17.66a281,281,0,0,1-71.71-9.47c-4.06-1.1-7.15-2.05-9.12-2.69a7.77,7.77,0,0,1-4-2.93l16.29-13.85L708.7,170.46Z"/><path class="cls-1" d="M747.46,193.31l-2,11.41L739.73,203a8,8,0,0,1-2.7-1.42l10.43-8.25m3.38-5.7L733.53,201.3a10.54,10.54,0,0,0,5.51,3.95l8.34,2.52,3.46-20.16Z"/><path class="cls-1" d="M895,192.71l9.68,5.86-7.81,3.1-1.87-9m-3.43-4.85,3.55,17.06L910,199l-18.41-11.15Z"/><path class="cls-1" d="M735.15,246.36A1.18,1.18,0,0,1,734,245.2l-1.1-43.78a1.18,1.18,0,0,1,1.15-1.21h0a1.19,1.19,0,0,1,1.19,1.15l1.1,43.78a1.19,1.19,0,0,1-1.16,1.22Z"/><path class="cls-1" d="M908.75,243.87h0a1.19,1.19,0,0,1-1.18-1.19l.18-43.68a1.18,1.18,0,0,1,1.19-1.18h0a1.18,1.18,0,0,1,1.18,1.19l-.18,43.68A1.18,1.18,0,0,1,908.75,243.87Z"/><path class="cls-1" d="M710.85,103.58a6.35,6.35,0,0,1,3.07-3.13,23.19,23.19,0,0,0,7.18-6.3c.95-1.25,2-2.67.88-4.74a4.53,4.53,0,0,1,.53-5.3c.79-.9.18-2.61,1.57-3.33.58-.29.27-1.09.8-1.4h0a20.62,20.62,0,0,0,4.63-3.05,17.77,17.77,0,0,0,2-2.71c.61-1.3.15-2.83,1-4.13.6-.89,1.06-1.27,2-.49,2,1.92,4.36,1.24,6.65.84.32-.06.7-.46,1-.26,2.28,1.48,3.83-.09,5.49-1.26.73-1.38,2.32-1.42,3.45-2.19.35-.24.82-.33,1.1-.62A8.79,8.79,0,0,1,759,62.44c2.63-2.22,5.87-1.51,8.89-1.81a7.26,7.26,0,0,0,2.8-.6c2.22-1.11,4.68-1.1,7.09-1.05a5.53,5.53,0,0,0,3.1-.84c2.63-1.56,2.64-1.55,5,.25A1.27,1.27,0,0,1,787,59.63a5.44,5.44,0,0,1,.05.58,12.75,12.75,0,0,0,.07,1.38,3.74,3.74,0,0,0,.79,1.2,3.13,3.13,0,0,1-.14,3.87c-.3.38-.69.69-1,1.09-1,1.42-.59,2.6,1,3.24a4.25,4.25,0,0,0,1.53.54,2.85,2.85,0,0,1,.81.21,1.28,1.28,0,0,1,.45.34c2,1.36,4.06,2.26,6.62,1.18A3.18,3.18,0,0,1,801,74c.71.82,1.66.66,2.53.82a7.47,7.47,0,0,0,5.91,3.57,22.64,22.64,0,0,1,6.48,1.88,3.8,3.8,0,0,0,3.64.11c1.54-1.63,1.7-2.82.62-4.55-.24-1.23-.21-2.36,1-3.14,2.89-2.72,6.14-3,9.35-.8a14.36,14.36,0,0,0,3,1.21c4.48,1.71,9.15,1.61,13.81,1.8a1,1,0,0,1,.53.11c2.07,1.62,3.7.49,5.3-.82a15.11,15.11,0,0,1,8.49-1c2,.3,4.14.63,5.85-1a5.38,5.38,0,0,1,1.45-2.35h0a1.39,1.39,0,0,0,.31-1c-.25-2.46,1-4.64,1.2-7h0c.45-.83,1.19-1.51,1.26-2.53a7.41,7.41,0,0,0-.57-3.73,2.39,2.39,0,0,1,.24-2.43,12.55,12.55,0,0,1,4.76-3.44,9.84,9.84,0,0,1,3.62-.61,13.54,13.54,0,0,0,6.75-1.77,20.85,20.85,0,0,1,8.88-2,7.74,7.74,0,0,0,3,.56,1,1,0,0,1,1.1.46c.65,1.33,2,2,2.75,3.31a6,6,0,0,0,1.39,1.81,1.71,1.71,0,0,1,.23.47,4.81,4.81,0,0,1-.28,2.85,3.21,3.21,0,0,0,.93,4.09c1.22,1,1.58,2.79,3.2,3.39a10.65,10.65,0,0,0,1.3.78l.44.26c.56.4,1.17.88,1.05,1.58-.39,2.32,1.22,3.48,2.59,4.8a1.79,1.79,0,0,1,.27.44,4.13,4.13,0,0,1-.27,3.16,1.3,1.3,0,0,0,0,1.38,14.33,14.33,0,0,0,3.05,4.42,2.85,2.85,0,0,1,.78.65,5.75,5.75,0,0,0,1.35,1.75,1.65,1.65,0,0,1,.28.41c.67,1.26,2.26,1.59,2.9,2.89a10,10,0,0,0,.7,2.06c.63,1,1.1,2,2.47.83.62-.53,1.14-.2,1.32.58a4.44,4.44,0,0,1,.13.9c.06,2.29,1.19,3.42,3.47,3.08a9.16,9.16,0,0,0,5.6-.24,4.55,4.55,0,0,0,1.54-1.42,41.92,41.92,0,0,1,4.21-5.1c.47-.56,1.26-.6,1.36.26.39,3.32,2.8,4.76,5.39,6.08,2.58,0,4.36,1.65,6.33,2.92a1.77,1.77,0,0,1,.64.93c.71,3.29-1.63,5.13-3.63,6.86-1.31,1.15-2.27,2.11-2.13,3.91a2.09,2.09,0,0,1-1.16,2.3c-.27.13-.61.32-.67.6-.51,2.23-2.63,2.56-4.05,3.76a30.31,30.31,0,0,1-6.51,4.24,12.87,12.87,0,0,0-5,4.34,7.06,7.06,0,0,1-2.44,1.9c-2.2,1.25-4.56,2.14-6.58,3.84-1.61,1.35-3.91,1.9-5.79,3-.54.32-1.36-.12-1.69.33-.59.82-1.41.56-2.14.71A6.91,6.91,0,0,0,910,133a5.7,5.7,0,0,1-5,1.06c-1.61-1.38-1.83-3.42-2.52-5.24-.22-.6-.62-1.13-.79-1.76a10.94,10.94,0,0,0-2.42-6.94,56.49,56.49,0,0,1-4-5.35,13,13,0,0,1-1.37-1.69,6.35,6.35,0,0,0-3.14-2.88,7.77,7.77,0,0,1-3.47-3.36,2,2,0,0,1-.24-.46c-.25-.93-.45-1.87-.72-2.79.15-3.29-2.43-4.91-4.27-7-2.36-.93-2.67-3.54-4.21-5.15a2.43,2.43,0,0,1-.33-.38,22.18,22.18,0,0,0-2.13-2.7,25.57,25.57,0,0,0-2.21-2.55,2.85,2.85,0,0,0-.87-1.08,3.85,3.85,0,0,1-.35-.35c-.4-.53-1-.92-1.14-1.62a21.26,21.26,0,0,1-.12-2.52c0-.3,0-.67-.34-.78s-.64.23-.8.55a9.15,9.15,0,0,0-.88,2.17,1.25,1.25,0,0,1-1.53,1.14,2,2,0,0,1-.48-.19c-1.43-1.24-2.54-2.83-4.39-4a4.37,4.37,0,0,0,1.69,3.66,3.39,3.39,0,0,1,.83,1c.36,1.34,1.49,2.15,2.21,3.24,1.81,2.68,3.14,5.64,5,8.29.3.47.32,1.08.76,1.48a2.91,2.91,0,0,1,.33.37,7.18,7.18,0,0,1,1.33,2.75,5.43,5.43,0,0,0,3.39,3.49,2.41,2.41,0,0,1,1,1,9.22,9.22,0,0,0,1,2.24c1.32,1.6.3,3.36.38,5.29a10.43,10.43,0,0,1,.16-2c.88.71.89.71.93,2.25,0,1.37.11,2.71,1.49,3.5a13.6,13.6,0,0,1,3.19,2.41,2.71,2.71,0,0,1,.35.4,9.49,9.49,0,0,1,1.68,3.93,6.58,6.58,0,0,0,3,4.48,17.91,17.91,0,0,0,5.17,2.1,3.71,3.71,0,0,1,.47.16,8.67,8.67,0,0,0,1.62.64,4.73,4.73,0,0,1,.47.2c2.49,1,3.66,3.33,5.08,5.38a7.39,7.39,0,0,0,2.45,5.28,2.9,2.9,0,0,0,1.76.83,3.93,3.93,0,0,0,3.44-.63,3.09,3.09,0,0,1,2.36-.81,3.9,3.9,0,0,0,3.34-1.06c1.44.25,2.67-.55,4-.82.92-.55,2.06-.14,3-.67s2.32-.29,3-1.47a4.79,4.79,0,0,1,1.24-.72c1.23-.76,1.9-.33,2.06,1.06a21.87,21.87,0,0,1,.11,3c.15,2.93-1.47,5.18-2.78,7.61a33.34,33.34,0,0,0-1.74,3.83c-1.08,2.83-1.85,5.82-3.71,8.28-1.58,2.09-3,4.34-4.64,6.33-1.48,1.75-3.67,2.67-5.56,3.92a8.32,8.32,0,0,0-2.32,2.26c-1.65,2.34-3.43,4.57-5.11,6.88-.49.66-1.1,1.38-2.15,1a4.66,4.66,0,0,1-1.4-1.8c-.85-1.8-.73-3.74-1-5.64-.16-1.33-.78-2.62-.64-4a2.05,2.05,0,0,1,.39-1.36c1.57-1.59,3-3.35,5.12-4.26h0a13.31,13.31,0,0,1,4.76-2.54c2.62-.83,4.08-2.68,5.41-4.81a16.29,16.29,0,0,0,3-3.94c.53-.59,1.16-1.17.79-2.07s-1.28-.91-2-.83a11.09,11.09,0,0,1-4.25-.86c-2-.57-4.25-.44-6.16-1.52a11,11,0,0,1-1.59-1c-.89-1.49-2.65-2.4-2.87-4.35,0-.41-.52-.73-.93-.82-2.07-.44-2.91-2-3.63-3.76a1.22,1.22,0,0,1-.07-.82c1-2.91.48-3.69-2.66-3.78-2.35-.07-4.77.41-7-.83-1.62-.83-2.24-2.42-3-3.92a26.75,26.75,0,0,0-1.38-3.21,6.05,6.05,0,0,1-.22-1.26c-.09-.48.26-1.27-.54-1.33-.59,0-.93.56-1.16,1.06-1.06,2.41-2.14,4.81-1.74,7.56.09.66-.08,1.36,0,2a8,8,0,0,1-2.07,6.4,11.08,11.08,0,0,0-1.58,2.88c-1.13,2.85-2.64,5.59-2.3,8.83a2.49,2.49,0,0,1-.71,1.84c-1,1.21-.86,2.18.5,3a7.12,7.12,0,0,1,1.22,1.11,21.66,21.66,0,0,0,1.56,1.62c.47.53,1,1,1.49,1.51a4.41,4.41,0,0,0,1.33,1.32,3.12,3.12,0,0,1,.4.32,1.48,1.48,0,0,1,.59,1.16,1.94,1.94,0,0,1-1.52,1.43,9.46,9.46,0,0,0-4.1,2.33,3.48,3.48,0,0,1-3.31,1.16s-.1,0-.05,0c.83.71-.08.83-.38.86-1.24.11-2.37.6-3.57.8a5.17,5.17,0,0,1-3.36-.55c-1.7-.87-3.39-2-5.5-.93-.61.32-1.45.08-2.19.08a3.44,3.44,0,0,1-1.1-.19,12.52,12.52,0,0,1-3.36-3.17,24.75,24.75,0,0,0-6.23-5.26c-2-1.33-3.77-3-5.92-4.2-.66-.36-.64-1-.58-1.61a5,5,0,0,0-2-4.62,3.11,3.11,0,0,1-1.06-1.84,6.19,6.19,0,0,0-2.26-3.84c-.8-.76-.73-1.46-.4-2.58a52.94,52.94,0,0,0,1.2-6.94,4.27,4.27,0,0,1,1.49-1c1.59-.9,2.17-1.89,1.58-3.59-.69-2-.49-3.93-.56-5.9a5.75,5.75,0,0,0-.34-1.83c-.13-.23-.26-.46-.4-.69a1.83,1.83,0,0,0-1.33-1.14c-2-.18-3.42-1.9-5.49-1.73-.49,0-.88-.37-1.19-.76a40.32,40.32,0,0,0-6.51-2.72c-1.42-.52-2.93-.64-4.24-1.65-.45-.34-1.73.18-2.65,0a1.77,1.77,0,0,1-.47-.25c-1.2-1.68-3.1-.75-4.62-1.24a1.14,1.14,0,0,1-.39-.3c-.08-.87-1-.59-1.29-.61-2.09-.18-4-1.43-6.28-.62a6.2,6.2,0,0,1-4.16-.08c-.52-.19-1.15-.57-1.56-.17-1.15,1.11-2.7,1.47-3.95,2.46q-5.08,4-10.23,7.92a82,82,0,0,0-7.09,5.47c-1,1-2.51.46-3.55,1.27a2,2,0,0,1-2.28-.67,9.39,9.39,0,0,0-3.92-2.14,25.63,25.63,0,0,1-5.89-2.8,39.46,39.46,0,0,0-3.73-2.27,2.47,2.47,0,0,1-.46-.23,4.46,4.46,0,0,0-1.33-.7,79.33,79.33,0,0,1-9.8-5.83c-.49-.7-1.39-.44-2-.87a1.68,1.68,0,0,1-.44-.61c-.48-.5-.81-1.3-1.76-.89a1.22,1.22,0,0,1-.44-.22,3.06,3.06,0,0,0-3.74.62,2.16,2.16,0,0,0-.1,2.84c.7,1.22.22,2.76.28,4.15a4.52,4.52,0,0,1-.09,1.64c-.17.55.14.45.46.42a1.37,1.37,0,0,1,.27.47,1.78,1.78,0,0,1,.11.72c-.44,3.71,1.2,7.29.74,11,0,.34.19.55.43.76a2.26,2.26,0,0,1,.32,1.1c.21,2.17-.41,4.37.57,6.51a1.29,1.29,0,0,1-1.31,1.9c-2.36-.12-4.61.57-6.87,1s-4.82.46-7.2,1c-1.81.41-3.81.07-5.37,1.43a1.09,1.09,0,0,1-.85,0c-.92-1.47-1.84-2.87-3.93-2.76-.64,0-1.25-.48-1.81-.82a2.07,2.07,0,0,0-2.54.07c-2.49.57-2.8.35-2.78-2.2A6.18,6.18,0,0,0,705,134a3.07,3.07,0,0,1-.35-1.95A5.63,5.63,0,0,0,703,128c-1.13-1.23-1.87-2.35-1.18-4,.24-.61-.11-1.34.19-2,.6-.83,1.35-1.63,1.27-2.74-.2-2.73,1.32-4.63,3.05-6.42a4.9,4.9,0,0,0,1.76-4c-.15-1.53,1.15-2.16,2-3C710.81,105.2,710.33,104.23,710.85,103.58Z"/><path class="cls-1" d="M882.87,239.55c-.53.56-2.75,2.44-4.68,4a19.43,19.43,0,0,1-10.37,4.47c-2.64.28-5.33,0-6.82-1.85a5.89,5.89,0,0,1-.63-6.76h0a4.75,4.75,0,0,0,2.49,1.92h0a4.43,4.43,0,0,0,1.3.19c4.46,0,10.52-.41,13.76-2.93a5.24,5.24,0,0,0,1.89-2.75v0c.45-1.65.31-4.2-3.77-5.87-2.51-1-6.49-.92-10.65,3.18a41.94,41.94,0,0,0-3.24,3.51h0q-.23.27-.42.54a.92.92,0,0,1-1.42.09,15,15,0,0,1-1.79-3.35l-6.63,2.82a3,3,0,0,0-.7.39c-2,1.64,0,4.81,0,4.81a1.81,1.81,0,0,1,.23.51,2.42,2.42,0,0,1-1.1,2.69c-5.8,3.6-22.29,7.28-22.29,7.28a35.8,35.8,0,0,0,16-2.27c6.3-2.55,7.92-4.83,8.32-5.7.14-.28.28-.56.43-.82,1.16-2.05-.11-3.64-.11-4.38s1.22-1.17,1.22-1.17l3.49-1a2.85,2.85,0,0,0,1.76,2.31.33.33,0,0,1,.18.32,2.89,2.89,0,0,1-.55,1.33,3.38,3.38,0,0,0-.41.83,6.52,6.52,0,0,0,5.33,8.69,14.75,14.75,0,0,0,4.53-.06c7.66-1.15,9.47-4.47,9.88-5.65a.45.45,0,0,1,.56-.29c1.62.44,7.15,1.9,8.25,1.59,1.28-.37,1.77-2.7,1.77-2.7C888.26,240.28,883.85,238.5,882.87,239.55Zm-13.31-7.22c1.51-.32,6.33-1.16,8,3.43a1,1,0,0,1-.64,1.56c-1.38.42-8.92,3.86-14.7.37C862.25,237.69,866.63,232.94,869.56,232.33Zm15.8,11.36a18.42,18.42,0,0,1-4.3-.63,3.26,3.26,0,0,1,2.69-.89,2.62,2.62,0,0,1,2.17,1.17C886.06,243.57,885.85,243.71,885.36,243.69Z"/><polygon class="cls-1" points="838.95 225.27 842.08 227.84 839.87 230.29 836.87 227.78 838.95 225.27"/><polygon class="cls-1" points="766.32 219.19 769.49 221.33 767.34 223.49 764.28 221.4 766.32 219.19"/><polygon class="cls-1" points="760.63 219.19 763.8 221.33 761.65 223.49 758.6 221.4 760.63 219.19"/><path class="cls-1" d="M818.07,225.27l.12-.37a1.35,1.35,0,0,0-.08-1.06l-2.92-5.67-1.48,2.45c2.85,17.21,1.87,17.21,1.87,17.21.06.86-3.89,1.72-3.89,1.72a5.91,5.91,0,0,0-1.4-2.64c-2.21-1.9-4.84-1.17-6.44,1.65s1.84,3.86,1.84,3.86h4.72c1,4.78-23,10.91-23,10.91l8.94-.72c15.5-4.21,15.62-10.68,15.62-10.68a6.71,6.71,0,0,0,4.48-2.69,5.82,5.82,0,0,0,1-4.15,68.9,68.9,0,0,1-.66-11.59Zm-9.5,14.83s-2.82-.25-2.82-1.17S809.25,238.69,808.57,240.1Z"/><path class="cls-1" d="M763,233.62c-1.1-1.06-2.14-2.07-3.2-3.07-.22-.2-.49-.38-.73-.58s-.32-.26-.34-.4a3.41,3.41,0,0,1,.43-2.32,28.78,28.78,0,0,1,4.09,2,11.86,11.86,0,0,1-1.71.22,13.61,13.61,0,0,0,3.07,2.32,48.27,48.27,0,0,0,4.71-5.72,1.74,1.74,0,0,1,0,1.38,18.7,18.7,0,0,1-1.5,2.49c-.64.88-1.4,1.7-2.14,2.57.24.22.5.46.75.71a5.06,5.06,0,0,1,1.84,3.45c.09,2-1,3.51-3.32,4.47a12.64,12.64,0,0,1-2.21.7c-1.45.31-2.4-.18-2.65-1.29a5.3,5.3,0,0,1,.33-3.09,13,13,0,0,1,2.28-3.48Zm1.17.7a14.17,14.17,0,0,0-3.08,4c-.31.66,0,1,1,1.08a3.53,3.53,0,0,0,.92,0,10,10,0,0,0,4.07-1.75c.21-.15.38-.31.18-.57A11.5,11.5,0,0,0,764.19,234.32Z"/><path class="cls-1" d="M762.79,246.92c.15-.43.25-.78.38-1.11a.52.52,0,0,1,.27-.24q4.47-1.92,8.95-3.81a1.32,1.32,0,0,1,.3-.1,1.23,1.23,0,0,1-.52,1.07l-9.13,4.1Z"/><path class="cls-1" d="M796.48,233.74c.21-.5.35-.91.55-1.3a.73.73,0,0,1,.42-.29q7.26-2.55,14.53-5.06a3.92,3.92,0,0,1,.49-.13,1.3,1.3,0,0,1-.78,1.26l-14.81,5.4Z"/><path class="cls-1" d="M858.06,229.47a16.93,16.93,0,0,1,.92-1.54,1.57,1.57,0,0,1,.72-.37l24.81-7,.84-.19c.12.56-.51,1.28-1.31,1.51l-25.3,7.39Z"/><path class="cls-1" d="M772.44,225.31c.28-.51.48-.92.75-1.32a1.19,1.19,0,0,1,.58-.31l20-5.58c.21-.06.44-.1.68-.15.08.5-.43,1.11-1.07,1.29L773,225.17Z"/><path class="cls-1" d="M787.38,234c2.07-1.17,6.76-3,6.76-3s-3.85-.26-5.44-.23a4.86,4.86,0,0,1-1.32,0c.29-1.38,1.19-2.38,3.64-2.38,1.51,0,6.34.28,6.34.28a12.25,12.25,0,0,1-5.69,4.68C790.57,233.5,787.69,234.05,787.38,234Z"/><path class="cls-1" d="M860.15,222.62a54.53,54.53,0,0,1,7.86-2.79s-3.82,0-5.41,0a4.86,4.86,0,0,1-1.32,0c.29-1.38,1.16-2.72,3.61-2.72H871a10.27,10.27,0,0,1-5.35,4.87C864.59,222.15,860.47,222.66,860.15,222.62Z"/><path class="cls-1" d="M783.27,225a1.15,1.15,0,0,1-.15,1,8.49,8.49,0,0,0-1.06,3,1.93,1.93,0,0,0,.16,1,.79.79,0,0,0,1.35.22,10.2,10.2,0,0,0,.78-.9,7.29,7.29,0,0,1-.66,2.05,1.32,1.32,0,0,1-1.25.66,1.21,1.21,0,0,1-1.12-.92,3,3,0,0,1,0-1.69A14.83,14.83,0,0,1,783.27,225Z"/><path class="cls-1" d="M833.48,231.92a1.35,1.35,0,0,1-.32,1.2,10.19,10.19,0,0,0-1.68,3.44,2.31,2.31,0,0,0,0,1.25,1,1,0,0,0,1.57.44,11.59,11.59,0,0,0,1-.95,8.7,8.7,0,0,1-1.07,2.33,1.56,1.56,0,0,1-1.58.59,1.41,1.41,0,0,1-1.18-1.24,3.56,3.56,0,0,1,.21-2A17.44,17.44,0,0,1,833.48,231.92Z"/><path class="cls-1" d="M855.36,245.34a1.08,1.08,0,0,1-.3,1.07,8.34,8.34,0,0,0-1.63,3.06,1.83,1.83,0,0,0,.05,1.11,1,1,0,0,0,1.57.42,12.59,12.59,0,0,0,1-.84,7.11,7.11,0,0,1-1,2.07,1.6,1.6,0,0,1-1.57.51,1.37,1.37,0,0,1-1.19-1.12,2.86,2.86,0,0,1,.18-1.78A15.14,15.14,0,0,1,855.36,245.34Z"/><path class="cls-1" d="M885.56,224.31a1.07,1.07,0,0,1-.26,1,8.17,8.17,0,0,0-1.45,3,1.76,1.76,0,0,0,.08,1.06.92.92,0,0,0,1.49.35,10.19,10.19,0,0,0,1-.83,7,7,0,0,1-.91,2,1.53,1.53,0,0,1-1.47.54,1.32,1.32,0,0,1-1.16-1,2.78,2.78,0,0,1,.13-1.71A14.2,14.2,0,0,1,885.56,224.31Z"/><path class="cls-1" d="M821.25,237.83a1,1,0,0,1-.22.82,6.92,6.92,0,0,0-1.14,2.33,1.5,1.5,0,0,0,0,.84.63.63,0,0,0,1.06.3,8.67,8.67,0,0,0,.71-.64,5.94,5.94,0,0,1-.72,1.58,1.06,1.06,0,0,1-1.07.4,1,1,0,0,1-.8-.84,2.4,2.4,0,0,1,.14-1.35A12,12,0,0,1,821.25,237.83Z"/><path class="cls-1" d="M799.31,218.13a.78.78,0,0,1-.19.83,6.19,6.19,0,0,0-1.14,2.39,1.33,1.33,0,0,0,.11.85.84.84,0,0,0,1.3.23,9,9,0,0,0,.79-.68,5.23,5.23,0,0,1-.72,1.62,1.35,1.35,0,0,1-1.24.46,1.12,1.12,0,0,1-1-.79,2.11,2.11,0,0,1,.05-1.36A11.14,11.14,0,0,1,799.31,218.13Z"/><path class="cls-1" d="M880.66,247.24c.12.25,0,.4-.15.55a3.88,3.88,0,0,0-.9,1.59.75.75,0,0,0,.1.56.76.76,0,0,0,1,.17,7.26,7.26,0,0,0,.63-.45,3.08,3.08,0,0,1-.57,1.07,1.18,1.18,0,0,1-1,.3.92.92,0,0,1-.84-.53,1.15,1.15,0,0,1,0-.91A7,7,0,0,1,880.66,247.24Z"/><path class="cls-1" d="M870.21,241.64a.62.62,0,0,1-.14.61,4.47,4.47,0,0,0-.83,1.75.9.9,0,0,0,.08.62.6.6,0,0,0,.94.17,6.08,6.08,0,0,0,.58-.5,3.79,3.79,0,0,1-.52,1.19,1,1,0,0,1-.91.34.82.82,0,0,1-.76-.58,1.49,1.49,0,0,1,0-1A8,8,0,0,1,870.21,241.64Z"/><path class="cls-1" d="M852.12,226.08c.22.4,0,.66-.2.92a6.21,6.21,0,0,0-1.42,2.7,1.27,1.27,0,0,0,.21.93,1.32,1.32,0,0,0,1.79.19,11.83,11.83,0,0,0,1-.79,5.07,5.07,0,0,1-.88,1.82,2.07,2.07,0,0,1-1.67.58,1.58,1.58,0,0,1-1.47-.83,1.83,1.83,0,0,1,0-1.5A11.68,11.68,0,0,1,852.12,226.08Z"/><path class="cls-1" d="M823.73,246.65c0-.35,0-.64,0-.93a33,33,0,0,0,.16-4c-.22-2.84-.6-5.68-.92-8.52-.29-2.53-.6-5.06-.88-7.59-.13-1.14-.17-2.29-.32-3.44a9.6,9.6,0,0,0-.42-1.32c-.06-.21-.16-.45-.05-.64.35-.67.78-1.32,1.25-2.07a3.05,3.05,0,0,1,.52.39c1.06,1.67,2,3.65,3.07,5.32.12.19,0,.42.05.64-.63,0-1.54-1-1.92-1.17,0,.12,0,.23,0,.34.57,4.66,1.15,9.31,1.7,14a13.8,13.8,0,0,1-.06,5.28,9.4,9.4,0,0,1-1.71,3.4,2.23,2.23,0,0,1-.22.21A1,1,0,0,1,823.73,246.65Z"/><path class="cls-1" d="M815.83,238.18a2.45,2.45,0,0,1-.42,1.5,8.06,8.06,0,0,0-.9,2.69,3.17,3.17,0,0,0,1.69,3.13,12.84,12.84,0,0,0,6,1.79,37.66,37.66,0,0,0,10.61-.71,62.33,62.33,0,0,0,12.72-3.77c.84-.36.93-.71.26-1.26a4.65,4.65,0,0,0-2.85-1c-.89,0-1.78,0-2.67,0-1.86,0-3-.89-3-2.34a4.76,4.76,0,0,1,2.3-3.92,3.37,3.37,0,0,1,3.38-.2,7.35,7.35,0,0,1,4.28,8.37c-.3,1.38-1.51,2.31-2.91,3a37.62,37.62,0,0,1-6.83,2.43,57.08,57.08,0,0,1-11.42,2.19,25.88,25.88,0,0,1-5.9-.14c-4.27-.66-6.56-2.84-6.56-6.25a8.33,8.33,0,0,1,1.55-4.8,7.4,7.4,0,0,1,.51-.63A.83.83,0,0,1,815.83,238.18Zm27.62-.23a3.39,3.39,0,0,0-1.58-1.26,2.94,2.94,0,0,0-1.79-.17c-.3.06-.54.21-.58.47s.14.48.45.61a2.31,2.31,0,0,0,.53.15C841.43,237.9,842.4,237.89,843.45,238Z"/><path class="cls-1" d="M852.35,224.15c-.22-.11-.18-.24-.21-.36a8.51,8.51,0,0,0-1.89-3.07.49.49,0,0,0-.68-.1,1,1,0,0,1-.86,0,3.75,3.75,0,0,1-.5-.21c-1-.45-1-.65-.4-1.29l.1-.1c.65-.74,1.08-.78,2.31-.2a4.11,4.11,0,0,1,2,2.15c.15.3.26.62.41,1,.42-.32.38-.68.53-1a7,7,0,0,1,1.09-2.21l.2-.21a1.87,1.87,0,0,1,2.11-.52c.88.36,1.2,1.24.65,1.74a.46.46,0,0,1-.59.06l-.47-.29c-.57-.35-1-.33-1.34.11a6.33,6.33,0,0,0-1.1,2.34,5.34,5.34,0,0,1-.68,1.65A1.15,1.15,0,0,1,852.35,224.15Z"/><path class="cls-1" d="M788.77,227.45c-.22-.11-.18-.24-.21-.36a8.61,8.61,0,0,0-1.89-3.06.5.5,0,0,0-.69-.11c-.28.16-.57-2.36.65-1.78a4.09,4.09,0,0,1,2,2.15c.15.31.26.62.4,1,.43-.33.38-.69.53-1a7.19,7.19,0,0,1,1.1-2.22l.2-.21a1.89,1.89,0,0,1,2.11-.52c.88.37,1.2,1.24.65,1.74a.46.46,0,0,1-.6.06l-.47-.29c-.57-.35-1-.33-1.34.11a6.54,6.54,0,0,0-1.09,2.34,5.5,5.5,0,0,1-.68,1.66A1.17,1.17,0,0,1,788.77,227.45Z"/><path class="cls-1" d="M837.34,223.65c-.46-.31-.87-.55-1.24-.83a2,2,0,0,1-.73-2.43,4.56,4.56,0,0,1,2.51-2.67,1.2,1.2,0,0,1,1.83,1.07,6.88,6.88,0,0,1-.47,3.25l.32.23c1.28.81,1.31.95.49,2.24l-.42.6c-.23-.2-.42-.39-.64-.55a8.43,8.43,0,0,0-.7-.47c-3.06,4-7.43,5.76-12.08,7.09a2.56,2.56,0,0,1,.92-.78c2.18-1.29,4.36-2.55,6.52-3.86A18.59,18.59,0,0,0,837.34,223.65Zm1-2.09c0-.36.05-.63,0-.91s0-.79-.41-1-.75,0-1.09.22-.43.5-.1.8A4.14,4.14,0,0,0,838.39,221.56Z"/><path class="cls-1" d="M784.44,251.31c-.33-.18-.33-.5-.39-.77a.53.53,0,0,0-.44-.44c-3.29-.93-5.31-2.89-6.06-5.91a23.71,23.71,0,0,0-.81-2.61c-.06.31-.11.61-.19.92a8,8,0,0,1-2.15,3.4,22.51,22.51,0,0,1-7.78,5.53,10.7,10.7,0,0,1-3.11.79,3,3,0,0,1-3.47-2.47,11.25,11.25,0,0,1,1.46-7.91.55.55,0,0,1,.14-.22c.14.39.13.45-.1,1.1a16.57,16.57,0,0,0-1,3.81l0,.21c-.16,2.08,1,3,3.29,2.67a11.75,11.75,0,0,0,3.56-1.07,22,22,0,0,0,8.23-6.77,2.12,2.12,0,0,0,.37-1.72,21,21,0,0,0-1.77-5.18,47.14,47.14,0,0,0-2.66-4.75,1.49,1.49,0,0,1-.24-1c.08-.6.13-1.2.21-1.79,0-.16,0-.36.2-.47s.4.25.55.41a19.27,19.27,0,0,1,4,6.94c.94,2.55,1.55,5.18,2.38,7.76a11.86,11.86,0,0,0,1.28,2.84,6.46,6.46,0,0,0,2.63,2.2c.18-.24.05-.41,0-.57a8,8,0,0,1-.43-3.45c.18-2.29,2.31-3.93,5-3.78a63.3,63.3,0,0,1,6.59.92,39.55,39.55,0,0,0,8.07.64c.41,0,.61.1.48.48-.2.64-.42,1.29-.63,1.93a.53.53,0,0,1-.51.37,11.7,11.7,0,0,0-5.08,1.77c-2.28,1.25-4.47,2.63-6.86,3.72a14.25,14.25,0,0,1-4,1.32c-.26,0-.29.18-.34.35S784.75,251.11,784.44,251.31Zm11.11-8.3c-2.06-.42-4-.77-6-1a18.14,18.14,0,0,0-3.9-.24,3.31,3.31,0,0,0-2.54,1.47.71.71,0,0,0-.16.77l1.55,3.07a.43.43,0,0,0,.47.27,8.28,8.28,0,0,0,2.75-.57,64.5,64.5,0,0,0,6.88-3.24C794.88,243.37,795.17,243.21,795.55,243Z"/><path class="cls-1" d="M812.12,250.23h-1.79s.09-1.47,1.33-1.47a1.31,1.31,0,0,1,1.38,1.47s-.14,2.7-7.9,3.1C805.14,253.33,811.07,252.16,812.12,250.23Z"/></g><g id="Layer_3" data-name="Layer 3"><path class="cls-1" d="M584.58,105.75c-2.49,2.65-12.93,11.48-22,19a91.43,91.43,0,0,1-48.81,21.06c-12.39,1.33-25.07-.07-32-8.71-8.51-10.57-8.06-21.27-3-31.78h0a22.38,22.38,0,0,0,11.72,9l.09,0a21.64,21.64,0,0,0,6.14.86c21,0,49.49-1.92,64.72-13.74a24.81,24.81,0,0,0,8.87-13s0-.09,0-.14c2.09-7.76,1.43-19.78-17.74-27.63-11.81-4.61-30.55-4.32-50.14,15a195.31,195.31,0,0,0-15.23,16.51v0c-.67.85-1.33,1.7-2,2.54a4.37,4.37,0,0,1-6.69.45c-3.89-4.3-8.4-15.76-8.4-15.76L439,92.77a14.22,14.22,0,0,0-3.26,1.87c-9.62,7.72.2,22.63.2,22.63a7.72,7.72,0,0,1,1.09,2.4,11.32,11.32,0,0,1-5.17,12.62C404.54,149.25,327,166.54,327,166.54s37.46,4.61,75.2-10.65c29.65-12,37.26-22.75,39.16-26.82.62-1.33,1.3-2.62,2-3.89,5.43-9.63-.55-17.09-.55-20.59,0-3.75,5.76-5.48,5.76-5.48L465,94.22c.67,6.83,6.05,9.87,8.26,10.86a1.43,1.43,0,0,1,.85,1.48,13.52,13.52,0,0,1-2.56,6.26,16.22,16.22,0,0,0-1.94,3.91c-6.65,19,5.26,37.76,25.09,40.9a69.78,69.78,0,0,0,21.3-.31c36-5.41,44.53-21,46.45-26.55a2.16,2.16,0,0,1,2.63-1.39c7.64,2.08,33.66,9,38.81,7.49,6.05-1.73,8.35-12.69,8.35-12.69C609.94,109.21,589.2,100.84,584.58,105.75ZM522,71.8c7.11-1.47,29.77-5.45,37.76,16.16,0,0,3.46,5.4-3,7.33S514.77,113.44,487.56,97C487.56,97,508.18,74.67,522,71.8Zm74.33,53.44a84.22,84.22,0,0,1-20.23-3c1.76-2.72,7.83-4.7,12.67-4.18,5.39.58,8.51,2.64,10.2,5.49C599.57,124.68,598.57,125.32,596.29,125.24Z"/><polygon class="cls-1" points="377.99 38.61 392.68 50.71 382.31 62.24 368.19 50.42 377.99 38.61"/><polygon class="cls-1" points="36.3 10 51.24 20.05 41.11 30.21 26.75 20.39 36.3 10"/><polygon class="cls-1" points="9.55 10 24.49 20.05 14.36 30.21 0 20.39 9.55 10"/><path class="cls-1" d="M279.74,38.6l.58-1.76a6.39,6.39,0,0,0-.38-5L266.19,5.19l-6.95,11.53c13.43,81,8.82,81,8.82,81,.28,4-18.3,8-18.3,8-.57-5.77-6.62-12.39-6.62-12.39-10.37-8.94-22.77-5.48-30.25,7.78s8.64,18.15,8.64,18.15h22.18c4.91,22.47-108.33,51.29-108.33,51.29l42.07-3.39c72.9-19.81,73.47-50.2,73.47-50.2A31.61,31.61,0,0,0,272,104.3a27.43,27.43,0,0,0,4.82-19.49c-4.41-36.46-3.12-54.56-3.12-54.56Zm-44.67,69.74s-13.25-1.15-13.25-5.48S238.25,101.71,235.07,108.34Z"/><path class="cls-1" d="M20.82,77.86c-5.19-5-10.1-9.7-15.07-14.4-1-1-2.32-1.81-3.41-2.76C1.68,60.13.81,59.49.7,58.82a16.14,16.14,0,0,1,2.06-10.9A138.75,138.75,0,0,1,22,57.31a55.74,55.74,0,0,1-8,1,63.32,63.32,0,0,0,14.46,11C36.05,60.36,44.56,52,50.55,42.36c.69,2.22,1.11,4.48.05,6.52a94.56,94.56,0,0,1-7.09,11.71c-3,4.11-6.58,8-10,12.07L37,76c5.06,4.77,8.34,10,8.63,16.25.44,9.39-4.56,16.49-15.61,21a60.73,60.73,0,0,1-10.41,3.31c-6.8,1.43-11.26-.87-12.44-6.08-1.12-4.94-.24-9.79,1.52-14.55,2.2-6,6.56-11.14,10.74-16.38C20,78.9,20.49,78.26,20.82,77.86Zm5.48,3.32c-6,5.83-11.25,11.76-14.46,18.56-1.47,3.1,0,4.76,4.48,5.12a16.12,16.12,0,0,0,4.34-.14A46.46,46.46,0,0,0,39.8,96.53c1-.74,1.79-1.46.84-2.7A53.48,53.48,0,0,0,26.3,81.18Z"/><path class="cls-1" d="M19.74,140.45c.68-2,1.16-3.68,1.79-5.23a2.44,2.44,0,0,1,1.26-1.13q21-9,42.07-17.94a12.39,12.39,0,0,1,1.42-.45c.08,2.06-1.09,4.43-2.43,5L20.89,140Z"/><path class="cls-1" d="M178.19,78.46c1-2.38,1.65-4.3,2.59-6.13a3.78,3.78,0,0,1,2-1.38Q216.92,59,251.11,47.15c.74-.25,1.52-.41,2.32-.62a6.15,6.15,0,0,1-3.67,5.95l-69.7,25.38C179.69,78,179.3,78.11,178.19,78.46Z"/><path class="cls-1" d="M467.89,58.34a83.13,83.13,0,0,1,4.29-7.22,7.33,7.33,0,0,1,3.39-1.75q58.32-16.45,116.7-32.83c1.26-.35,2.61-.59,4-.9.54,2.66-2.43,6-6.15,7.1l-119,34.76C470.44,57.69,469.78,57.85,467.89,58.34Z"/><path class="cls-1" d="M65.11,38.8c1.33-2.41,2.24-4.36,3.53-6.22a5.6,5.6,0,0,1,2.74-1.46Q118.32,18,165.3,4.88c1-.29,2.1-.47,3.2-.71.39,2.34-2,5.21-5,6.08L67.68,38.14C67.16,38.29,66.63,38.41,65.11,38.8Z"/><path class="cls-1" d="M135.38,79.76c9.77-5.52,31.79-14.29,31.79-14.29s-18.09-1.21-25.59-1.08a24.28,24.28,0,0,1-6.2-.19C136.76,57.72,141,53,152.53,53c7.1,0,29.81,1.28,29.81,1.28a57.68,57.68,0,0,1-26.77,22C150.38,77.31,136.86,79.92,135.38,79.76Z"/><path class="cls-1" d="M477.72,26.15C487.48,20.63,514.66,13,514.66,13s-17.95-.19-25.45-.06a23.84,23.84,0,0,1-6.2-.19C484.39,6.3,488.45,0,500,0h28.95a48.51,48.51,0,0,1-25.15,22.91C498.58,23.91,479.19,26.31,477.72,26.15Z"/><path class="cls-1" d="M116.06,37.13c.8,2.13,0,3.51-.71,4.89-2.36,4.6-4.5,9.26-5,14.29a9.25,9.25,0,0,0,.74,4.89c1.28,2.69,4.06,3.16,6.38,1A49.4,49.4,0,0,0,121.15,58s-1.26,7.07-3.1,9.66c-1.29,1.84-3,3.3-5.91,3.07a5.61,5.61,0,0,1-5.24-4.32,14.2,14.2,0,0,1-.11-7.94A70.09,70.09,0,0,1,116.06,37.13Z"/><path class="cls-1" d="M352.25,69.87c.64,2.63-.51,4.14-1.53,5.66-3.43,5.11-6.61,10.3-7.88,16.17a10.85,10.85,0,0,0,.19,5.87c1.13,3.35,4.34,4.3,7.38,2.08a59.31,59.31,0,0,0,4.92-4.47s-2.48,8.16-5,11c-1.78,2-4,3.47-7.41,2.79a6.66,6.66,0,0,1-5.56-5.84,16.85,16.85,0,0,1,1-9.39C341.67,85.45,345.72,77.48,352.25,69.87Z"/><path class="cls-1" d="M455.19,133c.67,2.36-.46,3.7-1.46,5-3.37,4.52-6.47,9.12-7.66,14.36a8.74,8.74,0,0,0,.25,5.25c1.17,3,4.4,3.9,7.4,1.95a55.22,55.22,0,0,0,4.85-3.94s-2.37,7.27-4.86,9.75a7.64,7.64,0,0,1-7.37,2.4,6.5,6.5,0,0,1-5.63-5.29,13.55,13.55,0,0,1,.86-8.38C444.82,146.82,448.76,139.74,455.19,133Z"/><path class="cls-1" d="M597.23,34.07c.7,2.24-.33,3.56-1.23,4.88-3,4.43-5.85,8.93-6.83,14a8.37,8.37,0,0,0,.39,5c1.18,2.85,4.25,3.6,7,1.64a53.51,53.51,0,0,0,4.47-3.91s-2,7-4.32,9.48a7.19,7.19,0,0,1-6.89,2.52,6.15,6.15,0,0,1-5.45-4.89,13.13,13.13,0,0,1,.57-8.05A68.22,68.22,0,0,1,597.23,34.07Z"/><path class="cls-1" d="M294.7,97.71c.44,1.78-.34,2.8-1,3.83-2.33,3.46-4.48,7-5.34,11a7.34,7.34,0,0,0,.12,4c.77,2.28,2.95,2.92,5,1.41a39.74,39.74,0,0,0,3.34-3s-1.68,5.53-3.4,7.43a5,5,0,0,1-5,1.9,4.51,4.51,0,0,1-3.77-4,11.34,11.34,0,0,1,.66-6.36A56.34,56.34,0,0,1,294.7,97.71Z"/><path class="cls-1" d="M191.51,5c.68,1.75-.15,2.83-.89,3.89-2.46,3.6-4.7,7.23-5.36,11.26a6.25,6.25,0,0,0,.52,4c1.12,2.22,3.79,2.73,6.1,1.11A43.41,43.41,0,0,0,195.59,22s-1.5,5.63-3.38,7.63a6.37,6.37,0,0,1-5.83,2.18,5.27,5.27,0,0,1-4.87-3.72,9.69,9.69,0,0,1,.2-6.4A52.41,52.41,0,0,1,191.51,5Z"/><path class="cls-1" d="M574.16,142c.56,1.17-.1,1.88-.68,2.59-2,2.37-3.74,4.78-4.24,7.46a3.59,3.59,0,0,0,.44,2.65c.92,1.49,3.07,1.85,4.92.78a33.56,33.56,0,0,0,2.95-2.12s-1.16,3.74-2.66,5.06a5.58,5.58,0,0,1-4.67,1.41c-2-.21-3.4-1.07-3.93-2.51a5.39,5.39,0,0,1,.11-4.26A33.11,33.11,0,0,1,574.16,142Z"/><path class="cls-1" d="M525,115.6a2.77,2.77,0,0,1-.65,2.85c-1.8,2.64-3.44,5.31-3.92,8.26a4.67,4.67,0,0,0,.37,2.91c.83,1.63,2.77,2,4.46.82a32.85,32.85,0,0,0,2.71-2.37s-1.1,4.13-2.46,5.6a4.65,4.65,0,0,1-4.26,1.6,3.85,3.85,0,0,1-3.56-2.73,7.12,7.12,0,0,1,.15-4.69A38.19,38.19,0,0,1,525,115.6Z"/><path class="cls-1" d="M439.93,42.4c1,1.9,0,3.13-1,4.35-3.14,4.08-6,8.21-6.64,12.69a5.81,5.81,0,0,0,1,4.35c1.69,2.4,5.38,2.83,8.45.92A54.06,54.06,0,0,0,446.6,61s-1.69,6.28-4.13,8.59a9.77,9.77,0,0,1-7.86,2.7c-3.48-.19-5.89-1.52-6.92-3.87a8.71,8.71,0,0,1-.13-7.07A54.7,54.7,0,0,1,439.93,42.4Z"/><path class="cls-1" d="M306.37,139.17c0-1.65-.05-3,0-4.38.28-6.23,1.24-12.48.76-18.69-1.05-13.35-2.81-26.69-4.34-40-1.35-11.9-2.83-23.79-4.15-35.69-.6-5.4-.8-10.81-1.48-16.2-.26-2.08-1.4-4.13-2-6.2-.28-1-.72-2.14-.23-3,1.65-3.12,3.69-6.16,5.89-9.73a12.36,12.36,0,0,1,2.42,1.87c5,7.81,9.65,17.14,14.48,25,.55.9.16,2,.21,3-3,.25-7.24-4.56-9-5.5a14.58,14.58,0,0,0,0,1.62c2.68,21.91,5.43,43.8,8,65.71,1,8.28,1.93,16.57-.31,24.85a43.86,43.86,0,0,1-8,16,7.87,7.87,0,0,1-1,1A7.23,7.23,0,0,1,306.37,139.17Z"/><path class="cls-1" d="M269.2,99.32c.4,2.62-.8,4.84-1.94,7.05A37.14,37.14,0,0,0,263,119.06c-.68,6.07,2,10.83,7.93,14.7,8.18,5.35,17.87,7.49,28.14,8.4,16.91,1.51,33.52-.12,49.91-3.33,20.81-4.07,40.94-9.6,59.83-17.7,3.94-1.69,4.34-3.34,1.23-6-3.58-3-8.26-4.37-13.4-4.58-4.19-.17-8.4,0-12.59-.08-8.75-.07-14.06-4.16-14.1-11,0-7.44,3.95-13.5,10.79-18.45,4.93-3.57,10.51-3.06,15.91-.91,8.26,3.28,13.23,9,16.87,15.38,4.37,7.69,5.08,15.82,3.28,24-1.42,6.46-7.1,10.83-13.71,14.27C393.23,139,382.06,142,371,145.22c-17.41,5-35.17,8.91-53.7,10.3a120.46,120.46,0,0,1-27.76-.62c-20.08-3.14-30.84-13.39-30.83-29.41A39.18,39.18,0,0,1,266,102.91c.71-1,1.58-2,2.41-3A5.3,5.3,0,0,1,269.2,99.32Zm129.94-1.07a15.94,15.94,0,0,0-7.43-5.91,13.85,13.85,0,0,0-8.41-.83c-1.44.3-2.54,1-2.73,2.22s.64,2.27,2.09,2.86a11.54,11.54,0,0,0,2.51.73C389.66,98,394.21,98,399.14,98.25Z"/><path class="cls-1" d="M441,33.33c-1-.52-.82-1.13-1-1.68-1.43-5.17-5-9.85-8.89-14.44a2.34,2.34,0,0,0-3.21-.5,4.72,4.72,0,0,1-4,.09,20.55,20.55,0,0,1-2.35-.94c-4.5-2.14-4.78-3.08-1.87-6.08.16-.17.33-.33.48-.5,3.05-3.48,5.07-3.66,10.84-.94,5.3,2.5,7.72,6.27,9.58,10.11.7,1.45,1.22,2.93,1.9,4.55,2-1.52,1.78-3.22,2.49-4.75,1.61-3.49,2.16-7.17,5.13-10.41.31-.33.64-.66,1-1,3.12-3,6.56-3.86,9.92-2.46,4.12,1.72,5.65,5.82,3.05,8.17a2.12,2.12,0,0,1-2.8.28L459,11.5c-2.68-1.65-4.58-1.55-6.3.52-2.89,3.45-3.94,7.25-5.14,11-.85,2.63-1.43,5.31-3.23,7.78A5.31,5.31,0,0,1,441,33.33Z"/><path class="cls-1" d="M141.91,48.87c-1-.52-.83-1.13-1-1.69C139.5,42,136,37.34,132,32.75a2.34,2.34,0,0,0-3.22-.5c-1.32.74-2.7-11.09,3.06-8.37,5.31,2.5,7.73,6.27,9.58,10.11.7,1.45,1.23,2.92,1.9,4.55,2-1.52,1.78-3.23,2.49-4.76,1.62-3.48,2.16-7.17,5.14-10.4.31-.34.63-.66,1-1,3.12-3,6.56-3.85,9.92-2.45,4.12,1.72,5.65,5.82,3.05,8.17a2.13,2.13,0,0,1-2.8.28c-.75-.45-1.48-.91-2.21-1.36-2.68-1.65-4.58-1.54-6.31.53-2.88,3.45-3.93,7.25-5.14,11-.84,2.63-1.43,5.3-3.22,7.78A5.37,5.37,0,0,1,141.91,48.87Z"/><path class="cls-1" d="M370.39,31c-2.16-1.44-4.07-2.57-5.82-3.9-3.89-3-5-6.84-3.44-11.42A21.34,21.34,0,0,1,373,3.1c4.52-2.08,8,0,8.61,5,.68,5.23-.44,10.26-2.2,15.28.53.38,1,.76,1.47,1.07C386.88,28.31,387,29,383.14,35c-.59.92-1.25,1.8-2,2.83-1.06-.93-2-1.82-3-2.6s-2-1.34-3.3-2.22C360.49,51.7,339.93,60.13,318,66.39a12.59,12.59,0,0,1,4.36-3.68c10.23-6,20.5-12,30.64-18.15A87,87,0,0,0,370.39,31Zm5-9.81c.08-1.72.21-3,.2-4.28,0-1.82-.09-3.76-2-4.69s-3.52.21-5.11,1.05c-1.93,1-2,2.37-.48,3.77A19.52,19.52,0,0,0,375.35,21.17Z"/><path class="cls-1" d="M121.57,161.11c-1.57-.84-1.54-2.36-1.85-3.62a2.48,2.48,0,0,0-2.06-2.08q-23.2-6.54-28.51-27.81a111,111,0,0,0-3.81-12.27c-.3,1.43-.54,2.88-.9,4.3-1.57,6.22-5.64,11.23-10.1,16a106,106,0,0,1-36.58,26,51.59,51.59,0,0,1-14.64,3.72c-8.18.87-14.64-3.54-16.35-11.63-2.75-13,.38-25.35,6.87-37.21a2.52,2.52,0,0,1,.67-1c.67,1.84.63,2.12-.46,5.17-2.12,5.88-4.23,11.76-4.91,17.92,0,.33-.09.65-.12,1-.78,9.8,4.6,14.13,15.48,12.57A54.19,54.19,0,0,0,41,147.1C56.73,139.23,70,129,79.74,115.29a10,10,0,0,0,1.73-8.09,98.83,98.83,0,0,0-8.29-24.39A230.39,230.39,0,0,0,60.66,60.47a6.72,6.72,0,0,1-1.13-4.59c.35-2.81.6-5.64,1-8.45.11-.75-.07-1.67,1-2.2,1.3.15,1.86,1.16,2.58,1.93,9.12,9.55,14.69,20.81,19,32.63,4.38,12,7.27,24.38,11.16,36.51a57.83,57.83,0,0,0,6,13.36c2.91,4.61,7.29,7.75,12.37,10.36.83-1.11.22-1.91-.07-2.69a37.9,37.9,0,0,1-2.06-16.24c.84-10.77,10.88-18.47,23.33-17.74,10.49.61,20.72,2.6,31,4.31,12.54,2.08,25.15,3.51,38,3,1.88-.08,2.83.47,2.26,2.24q-1.47,4.56-3,9.11a2.46,2.46,0,0,1-2.38,1.73c-9,.4-16.45,4.25-23.88,8.33-10.73,5.88-21,12.38-32.27,17.49-5.94,2.71-11.95,5.28-18.59,6.2-1.22.17-1.36.84-1.6,1.64C123,158.69,123,160.17,121.57,161.11ZM173.84,122c-9.72-2-19-3.6-28.31-4.85-6.08-.81-12.16-1.58-18.36-1.11A15.64,15.64,0,0,0,115.23,123c-.77,1.06-1.49,2.27-.79,3.64,2.45,4.81,4.92,9.62,7.31,14.45a2,2,0,0,0,2.21,1.26,38.83,38.83,0,0,0,12.92-2.71c11.4-4,21.71-9.94,32.4-15.2C170.68,123.73,172,123,173.84,122Z"/><path class="cls-1" d="M251.78,156h-8.42s.43-6.92,6.26-6.92c0,0,6.49-.43,6.49,6.92,0,0-.65,12.68-37.17,14.55C218.94,170.58,246.81,165.1,251.78,156Z"/></g><g id="Layer_1-2" data-name="Layer 1"><text class="cls-2" transform="translate(5.78 253.33)">WAHDA BANK</text><path class="cls-1" d="M970.36,198.67a7.44,7.44,0,0,1-1,1.06,74.85,74.85,0,0,1-10.21,6.34,21.72,21.72,0,0,1-6.71,2.07,9,9,0,0,1-7.66-2.78,23.66,23.66,0,0,0-4.4-3.73,7.85,7.85,0,0,0-4.3-1.21,12.61,12.61,0,0,1-2.22-.1c-.8-.13-1.06-.6-.78-1.29a5.16,5.16,0,0,1,.65-1,5.65,5.65,0,0,0,.52-6.65,23.17,23.17,0,0,1-1.8-4.05,8.52,8.52,0,0,1,.31-6.14,9,9,0,0,1,2.49-3.42c2.42-2,4.82-4.06,7.24-6.08a6.63,6.63,0,0,1,1.08-.6c0,.42.07.65,0,.83-1.07,2.44-.32,4.63.92,6.87a36.37,36.37,0,0,1,2.62,4.58,7,7,0,0,1-1.21,7,19.3,19.3,0,0,1-6.4,5.43c-.57.32-1.09.72-1.57,1,.14.66.56.67.93.53a5.9,5.9,0,0,0,1.42-.71,24.1,24.1,0,0,1,8.71-3.57c3.6-.79,7-.26,9.71,2.26a16.12,16.12,0,0,0,4.79,3.08,7.29,7.29,0,0,0,4.92.21,17.69,17.69,0,0,1,1.79-.35Z"/><path class="cls-1" d="M955.13,186.52c1.14-.15,1.72-1,2.56-1.52,1-.6,1.89-1.43,2.95-2a44.73,44.73,0,0,1,4.55-1.94,9.72,9.72,0,0,1,8.76.82c1,.61,2.07,1.21,3.14,1.76a7.91,7.91,0,0,0,7,.35l2.05-.85a2.57,2.57,0,0,1-.19.94,12.24,12.24,0,0,1-1.62,1.9c-2.31,2-4.62,4-7,5.88a19.52,19.52,0,0,1-5.85,3.1,9.59,9.59,0,0,1-8.85-1.08c-1.25-.87-2.49-1.76-3.75-2.61a9.58,9.58,0,0,0-7.35-1.22c-.48.08-1.08.37-1.34-.12a1.58,1.58,0,0,1,0-1.36,7.67,7.67,0,0,0,1-3.84,6.85,6.85,0,0,0-1.42-3.84c-.84-1.3-1.73-2.57-2.47-3.91a6.94,6.94,0,0,1-.09-6.08,21.55,21.55,0,0,1,4.51-6.52c.84-.93,1.73-1.83,2.61-2.72.31-.31.69-.57,1.21-1a3.23,3.23,0,0,1,.16,1c-.5,2.31.4,4.21,2,6a32.24,32.24,0,0,1,3.65,4.81c1.33,2.27,1,4.62-.37,6.86a19.09,19.09,0,0,1-5.24,5.71C955.17,185.41,954.59,185.79,955.13,186.52Z"/><path class="cls-1" d="M999.55,165.89a7.32,7.32,0,0,1-.61,1.18c-1.65,2.2-3.23,4.45-5,6.57a22.91,22.91,0,0,1-7.73,6.27,8.59,8.59,0,0,1-7.92-.08c-1.17-.58-2.37-1.1-3.54-1.68a9.69,9.69,0,0,0-7.84-.47c-1.36.49-1.88.07-1.62-1.21a4.77,4.77,0,0,1,.17-.65c.88-2.3.09-4.25-1.54-6-1.07-1.16-2.18-2.29-3.22-3.47a6.85,6.85,0,0,1-1.77-5.46,13.71,13.71,0,0,1,2.25-6c.86-1.29,1.6-2.65,2.39-4a2.44,2.44,0,0,1,.45-.68,1.36,1.36,0,0,1,.86-.35.88.88,0,0,1,.6.63c.09,2.39,1.84,3.81,3.63,5.24a46.52,46.52,0,0,1,3.48,3.09,5.81,5.81,0,0,1,1.7,4.81A11.43,11.43,0,0,1,971,171a32.25,32.25,0,0,0-2.54,2.94c-.16.2-.28.65-.15.8.32.37.72.11,1-.15,1.29-1.23,2.57-2.46,3.83-3.71a17.47,17.47,0,0,1,8.79-5.14,5.56,5.56,0,0,1,2.92,0c1.49.49,3,.93,4.47,1.46,3.08,1.1,6,1.07,8.66-.89a11.31,11.31,0,0,1,1.33-.73Z"/><path class="cls-1" d="M971.48,136.59c1.18,1.88,2.18,3.47,3.94,4.48,1.25.71,2.53,1.4,3.85,2a8.24,8.24,0,0,1,4.17,3.81,3.07,3.07,0,0,1,.4,1.13,11,11,0,0,1-.72,5.88c-.64,1.29-1.3,2.58-1.93,3.87-.19.39-.6.88,0,1.15s.84-.3,1.1-.66c1-1.46,2-2.94,3.06-4.38a16.05,16.05,0,0,1,4.91-4.17c2.14-1.27,4.48-1.17,6.87-.81a31.25,31.25,0,0,0,4.39.51,7.27,7.27,0,0,0,5.1-2.41c.38-.36.69-.87,1.47-.94a2.66,2.66,0,0,1,0,.81,21.39,21.39,0,0,1-1,2.78c-1.19,2.43-2.34,4.89-3.74,7.22A18.08,18.08,0,0,1,1000,161c-2.77,2.47-5.57,3.27-9.77,2.14-1.61-.43-3.22-.89-4.84-1.29a7.49,7.49,0,0,0-4.59.69c-.54.2-1,.51-1.6.69-.79.26-1.24,0-1.4-.72a5.3,5.3,0,0,1-.06-1.32,5.26,5.26,0,0,0-2.26-4.82c-1.22-.89-2.35-1.91-3.64-2.72a7.35,7.35,0,0,1-3.43-5.9,13,13,0,0,1,.8-5.37c.5-1.52,1-3.06,1.53-4.58A8.37,8.37,0,0,1,971.48,136.59Z"/><path class="cls-1" d="M975.21,123.37c2,2.74,5.18,3.55,8.43,4.23a10.25,10.25,0,0,1,4.4,2.11,5.74,5.74,0,0,1,1.88,3.95,20.65,20.65,0,0,1,0,4.78,28.66,28.66,0,0,1-1,3.72,11.61,11.61,0,0,0-.17,1.45c.54-.31.91-.4,1-.6.31-.6.51-1.25.78-1.86.93-2.14,1.74-4.33,2.83-6.41,1.87-3.55,5.1-5.31,9.52-5.19,2.52.07,4.83-.38,6.63-2.09a16.72,16.72,0,0,0,1.13-1.39l1.19-1.49a4.12,4.12,0,0,1,.31,1.08,45.72,45.72,0,0,1-1.73,9.55,38.75,38.75,0,0,1-1.82,4.21,9.86,9.86,0,0,1-3.73,4.05,8.73,8.73,0,0,1-5.49,1.19c-1.82-.11-3.64-.29-5.47-.28a6.93,6.93,0,0,0-4,1.49c-.42.3-.81.65-1.24.94-1.08.75-1.5.58-1.7-.63a7,7,0,0,0-4.48-5.7c-1.25-.52-2.5-1.06-3.73-1.63a7.72,7.72,0,0,1-4.54-5.56c-.7-2.95-.21-5.81.14-8.7a4.53,4.53,0,0,1,.55-1.24Z"/><path class="cls-1" d="M1010.36,103.4a2.65,2.65,0,0,1,.27.57,58.47,58.47,0,0,1,.47,8.87c-.1,1.5-.21,3-.43,4.48a10.36,10.36,0,0,1-2.26,4.72,5.71,5.71,0,0,1-2,1.49,12.92,12.92,0,0,1-5.1,1.27,9.86,9.86,0,0,0-7.28,3.35,4.89,4.89,0,0,1-.39.4c-1.08,1.11-1.36,1-2.12-.24-1.17-2-2.61-3.66-5.29-4.1q-2.25-.37-4.47-.9a7.06,7.06,0,0,1-4-2.09,10.22,10.22,0,0,1-2.38-4.22c-.47-2.12-1-4.22-1.51-6.33a1.26,1.26,0,0,1,.52-1.51c.32.21.68.43,1,.66a10.18,10.18,0,0,0,5.91,1.85,28,28,0,0,1,5.31.36,6.59,6.59,0,0,1,4.18,3,11.15,11.15,0,0,1,1.85,7.23,12.24,12.24,0,0,0,0,1.6,4.67,4.67,0,0,0,.36,1c1-.33.78-1,.84-1.5.22-1.89.32-3.8.71-5.65a13.39,13.39,0,0,1,2.49-5.22c1.16-1.54,3-2,4.85-2.65l3.88-1.28a5,5,0,0,0,3-3,13.38,13.38,0,0,1,.91-1.66C1009.74,103.66,1010.05,103.58,1010.36,103.4Z"/><path class="cls-1" d="M969.8,95.43c1.11.4,2,.76,2.93,1.06,2,.64,3.91.13,5.85-.18a16,16,0,0,1,5.43-.25,5.61,5.61,0,0,1,1.92.66,8.91,8.91,0,0,1,4,4.67,12.65,12.65,0,0,1,1.09,3.7,4.55,4.55,0,0,0,1.27,2.27,5.38,5.38,0,0,0-.07-3.18,11.31,11.31,0,0,1-.43-2.19,37.65,37.65,0,0,1,0-4.25,12.59,12.59,0,0,1,.53-2.72,6.15,6.15,0,0,1,3.59-4,32.9,32.9,0,0,0,2.92-1.58,5.58,5.58,0,0,0,3.08-3.87,6.18,6.18,0,0,1,.41-1.41,6.4,6.4,0,0,1,.83-1.06,19.56,19.56,0,0,1,1.06,2.27c.93,3,2.14,6,2.47,9.13a14.19,14.19,0,0,1-.14,4.46,6.8,6.8,0,0,1-4.08,4.93A23.33,23.33,0,0,1,999.6,105c-2.88.88-5,2.4-6.06,5a2,2,0,0,1-.44.69c-.49.5-1,.47-1.46,0a15.67,15.67,0,0,0-1.76-1.79,8.61,8.61,0,0,0-5.55-1.51c-1,0-2,.15-3,.17a8.51,8.51,0,0,1-7.59-3.65,39,39,0,0,1-4.1-7.76C969.6,96,969.74,95.77,969.8,95.43Z"/><path class="cls-1" d="M962.65,82.49c.56.15,1.12.28,1.66.47a4.63,4.63,0,0,0,3.18,0c1.42-.52,2.84-1,4.29-1.48a21.93,21.93,0,0,1,3.57-.89,5.84,5.84,0,0,1,2.45.29A8.83,8.83,0,0,1,982.34,84c.84,1.18,2.08,2.13,2.47,3.58.12.43.52.61,1.15.35a7.45,7.45,0,0,1-.44-.82,42.11,42.11,0,0,1-1.89-5.43,8.24,8.24,0,0,1,3.68-9.09,10.79,10.79,0,0,0,1.26-.93c1.32-1.27,2.28-2.66,2.13-4.51-.06-.72-.16-1.52.72-2.09a5.41,5.41,0,0,1,1.67,2.13,51.79,51.79,0,0,1,2.88,4.6A15.86,15.86,0,0,1,998,79.43a6.61,6.61,0,0,1-3.35,5.62c-1.05.68-2.07,1.37-3.13,2a6.11,6.11,0,0,0-2.84,4.34,4.3,4.3,0,0,1-.36,1.27,1.09,1.09,0,0,1-1.71.41l-.23-.17c-2.35-2.08-5.1-2-8-1.22a25.23,25.23,0,0,1-4,.85,7.17,7.17,0,0,1-4.59-1.25,16.23,16.23,0,0,1-3.07-2.49c-1.42-1.52-2.67-3.17-4-4.77A1.1,1.1,0,0,1,962.65,82.49Z"/><path class="cls-1" d="M976.43,49c.4.37.81.73,1.19,1.12,1,1,2,2.07,3,3.14a27.79,27.79,0,0,1,1.77,2.28c1.2,1.67,2.52,3.28,3,5.27a6.38,6.38,0,0,1-1.84,6.87,37.41,37.41,0,0,0-3.69,4,4.21,4.21,0,0,0-.81,3.31,5.5,5.5,0,0,1,.17,1c0,1.14-.75,1.49-1.86.91-.42-.22-.86-.4-1.3-.61-2.09-1-4-.34-6,.44-1.12.46-2.25.92-3.34,1.43a7.39,7.39,0,0,1-6.14,0,21,21,0,0,1-5.78-3.89c-.69-.57-1.34-1.17-2-1.75a1.46,1.46,0,0,1-.55-1.57,1.24,1.24,0,0,1,.43-.11c2.62.53,4.7-.59,6.77-1.75l2.41-1.31c3.26-1.75,6.25-1.08,9.07.88.78.54,1.47,1.18,2.21,1.76.31.24.67.43,1,.65l.3-.21c-.3-.62-.55-1.26-.91-1.85a18.66,18.66,0,0,1-2-4.12,6.11,6.11,0,0,1,1.21-6,21,21,0,0,0,3.31-4.7A3.22,3.22,0,0,0,976,51C975.35,50,975.46,49.77,976.43,49Zm-1.9,22.32c.37,1.47.57,1.64,1.73,1.45C975.6,72.37,975.69,71.43,974.53,71.34Z"/><path class="cls-1" d="M959.25,36.43a5.06,5.06,0,0,1,.72.33,50.82,50.82,0,0,1,6.4,5.13,16.15,16.15,0,0,1,3.77,5.35,4.9,4.9,0,0,1,0,3.65,17.64,17.64,0,0,1-1.64,2.8c-.47.73-1,1.41-1.51,2.13a5.15,5.15,0,0,0-.59,5.1,2.48,2.48,0,0,1,.17.37c.19.86-.43,1.5-1.4,1.41a3.7,3.7,0,0,1-1.15-.26c-2-.8-3.66-.13-5.29.78-1,.56-2,1.19-2.92,1.83a8.49,8.49,0,0,1-7.84,1,32.73,32.73,0,0,1-7.69-4.21c-.31-.21-.65-.66-.6-.94s.58-.62.94-.66c2.62-.3,4.51-1.7,6.33-3.24a15.22,15.22,0,0,1,2-1.38,7.59,7.59,0,0,1,7.32-.32c1.2.53,2.33,1.16,3.46,1.79a3.27,3.27,0,0,1,.79.74c.47.5.5.51,1.57.41-.08-.17-.12-.37-.24-.46a14.27,14.27,0,0,1-4.81-6,6.52,6.52,0,0,1,.44-6.3,27.08,27.08,0,0,0,1.71-2.94A4.78,4.78,0,0,0,959,38C958.67,37.44,958.73,37,959.25,36.43Z"/><path class="cls-1" d="M924.82,52.1c0-.82.61-1,1.2-1.14a7.89,7.89,0,0,0,4.17-2.39c1.09-1.08,2.26-2.1,3.44-3.11a6.45,6.45,0,0,1,4.54-1.26,14.22,14.22,0,0,1,5,1.25c.58.22,1.16.47,2.08.84a5.08,5.08,0,0,0-.56-1c-.82-.77-1.68-1.5-2.51-2.26-2.77-2.54-3.16-5.48-1.82-8.7.19-.46.38-.92.59-1.36a5.08,5.08,0,0,0-.65-5.9c-.47-.56-.21-.87.28-1.27a62.61,62.61,0,0,1,6.94,4.05,17.32,17.32,0,0,1,4.3,4,6.06,6.06,0,0,1,.91,5.71,20.8,20.8,0,0,1-1.5,3.17,6.05,6.05,0,0,0-.06,6c.48.9-.09,1.71-1.2,1.76a3.63,3.63,0,0,1-.73-.08,6.3,6.3,0,0,0-5.3,1.5c-1.29,1.08-2.65,2.11-4,3.15a5.94,5.94,0,0,1-3.33.95,14,14,0,0,1-6.72-1.39c-1.56-.67-3.07-1.44-4.59-2.17A2.48,2.48,0,0,1,924.82,52.1Zm22-4.84.16-.34-.75-.27a1.37,1.37,0,0,0-.13.32A5.7,5.7,0,0,0,946.78,47.26Z"/><path class="cls-1" d="M908.45,44.4c0-.74.54-.94,1.09-1a7.25,7.25,0,0,0,4.56-3.17,27.09,27.09,0,0,1,2.44-2.82c1.9-1.91,4.38-2.07,7-1.66a16.17,16.17,0,0,1,2.87.66c1,.34,1.8.88,2.72,1.3a3.94,3.94,0,0,0,.95.1c-.54-1-1.52-1.16-2.26-1.61-.48-.29-1.06-.46-1.51-.79-1-.73-1.94-1.52-2.88-2.3-2.33-1.92-2.43-4.34-1.89-6.88a15.22,15.22,0,0,1,.58-1.93,4.82,4.82,0,0,0-.71-4.58l-.16-.22c-.27-.4-.46-.82-.08-1.23s.9-.25,1.35-.05c1.21.52,2.42,1,3.61,1.58A26.34,26.34,0,0,1,931.52,23c2.08,1.67,3.2,3.72,2.64,6.28a23.65,23.65,0,0,1-1,3.46,5.49,5.49,0,0,0,.73,5.58c.87,1.19.4,2.07-1.14,2-3.09-.24-4.85,1.46-6.48,3.34a11.82,11.82,0,0,1-3.47,3,3.43,3.43,0,0,1-1.36.49c-2.52.11-5,.27-7.45-.7-1.45-.58-3-1-4.43-1.54A10.87,10.87,0,0,1,908.45,44.4Z"/><path class="cls-1" d="M911.46,29.89a5.54,5.54,0,0,0-2.67-1.47,14.17,14.17,0,0,1-4.4-2.43A5.18,5.18,0,0,1,902,21.47a32.61,32.61,0,0,1,.31-3.43,4.87,4.87,0,0,0-1.62-5,6.34,6.34,0,0,1-.91-1.45,10.65,10.65,0,0,1,1.89.09c4,1.07,7.83,2.37,10.94,4.88a5.56,5.56,0,0,1,1.92,6.08c-.19.78-.34,1.57-.56,2.34a5.29,5.29,0,0,0,1.22,4.88c1,1.32.68,2.09-1.13,2.32A6.28,6.28,0,0,0,909.48,35a37.86,37.86,0,0,1-2.94,3.65,5.48,5.48,0,0,1-4.21,1.64,23.6,23.6,0,0,1-7.9-.89c-.51-.16-1.07-.18-1.59-.32-.93-.24-1.13-.87-.48-1.49a1.67,1.67,0,0,1,.59-.4,6.2,6.2,0,0,0,3.34-3.06c.59-.92,1.14-1.86,1.78-2.75a6.47,6.47,0,0,1,5-2.69c.94-.06,1.89,0,2.83,0a2.76,2.76,0,0,1,.86.13c1.29.41,2.57.85,3.87,1.26C910.8,30.08,911,30,911.46,29.89Z"/><path class="cls-1" d="M873.55,34.35a1.09,1.09,0,0,1,.78-1.29,6.1,6.1,0,0,0,3.51-3.42c.49-1,.9-2,1.47-2.89a6.36,6.36,0,0,1,5.45-3.15,55.1,55.1,0,0,1,5.62.24h.87c-.07-.73-.67-.59-1.1-.72-2.75-.81-5.34-1.82-7.17-4a4.12,4.12,0,0,1-1-2.58c0-1,0-1.95,0-2.92a5.63,5.63,0,0,0-2-5c-.35-.29-.76-.64-.39-1.14s.83-.41,1.33-.29a44.32,44.32,0,0,1,9,2.68A10.35,10.35,0,0,1,894,13.51a2.35,2.35,0,0,1,.33,1.28,27,27,0,0,1-.1,3.71A5.7,5.7,0,0,0,896,23.76c.86.8.72,1.44-.34,2a3.52,3.52,0,0,1-1,.33,5.34,5.34,0,0,0-3.64,2.71c-.56.94-1.07,1.9-1.62,2.84a6.78,6.78,0,0,1-4.58,3.27,14.11,14.11,0,0,1-6.43,0C876.89,34.6,875.25,34.54,873.55,34.35Z"/><path class="cls-1" d="M855.18,31.21c.46-.51.67-1,1-1.13A5.43,5.43,0,0,0,859,26.65c.43-1.13.82-2.27,1.35-3.36,1.14-2.37,3.4-3.25,6.08-3.36,1.72-.06,3.46.12,5.19.18.32,0,.63,0,1.27-.07a6.39,6.39,0,0,0-2.86-.93,12.86,12.86,0,0,1-6.8-2.7,4.46,4.46,0,0,1-1.66-3.3c-.08-1.28-.33-2.55-.48-3.82a4.81,4.81,0,0,0-2.37-3.37,4.34,4.34,0,0,0-.4-.23c0-.89.55-1,1.23-1a28.73,28.73,0,0,1,6.55,1,17.12,17.12,0,0,1,5,2,4.93,4.93,0,0,1,2.35,3.38,16.39,16.39,0,0,1,.26,3.7,4.85,4.85,0,0,0,2.06,4.34,4.94,4.94,0,0,1,.45.35c1,.93.92,1.69-.48,2a5.6,5.6,0,0,0-4.08,3.36c-.36.78-.71,1.56-1,2.35a6.6,6.6,0,0,1-6,4.32c-2.74.23-5.54,0-8.31,0A6.18,6.18,0,0,1,855.18,31.21Z"/><path class="cls-1" d="M851.76,17.63a5.47,5.47,0,0,0-2.74-.84,10.57,10.57,0,0,1-5.19-1.42,6.5,6.5,0,0,1-3.27-5.4,5.94,5.94,0,0,0-1.33-3.6,23.7,23.7,0,0,0-2-1.66c.06-.63.59-.83,1.21-.87a9.61,9.61,0,0,1,1.93,0,36.31,36.31,0,0,1,8.11,1.45A5.72,5.72,0,0,1,852.34,9a12,12,0,0,1,.68,3.49,4.92,4.92,0,0,0,2.29,3.87c1.78,1.31,1.75,1.7-.2,2.7a5.76,5.76,0,0,0-3.3,3.89c-.16.74-.41,1.46-.63,2.18a6,6,0,0,1-4.09,3.92,23.5,23.5,0,0,1-5.52.91A32.5,32.5,0,0,1,838,30a7.59,7.59,0,0,1-1.06-.17c-.27-.68.19-1,.58-1.18A5.09,5.09,0,0,0,840,25c.18-.74.28-1.49.49-2.22a6.11,6.11,0,0,1,5.18-4.57c1.54-.28,3.13-.35,4.7-.51C850.82,17.68,851.29,17.66,851.76,17.63Z"/><path class="cls-1" d="M659.12,185.32l3.14,1.7c2.3,1.26,4.59,2.54,6.9,3.79,1.68.91,3.36,1.81,5.06,2.69.59.31,1.24.53,1.86.8,1.8.8,3.56,1.68,5.4,2.39,2.43.94,4.88,1.15,7.17-.41.55-.38,1.14-.7,1.69-1.08,2.25-1.54,4.62-1.13,7.06-.44,1.85.52,3.11,1.83,4.77,2.6,1.87.87,3.65,1.91,5.48,2.88.69.36.85,1,.33,1.72a9.34,9.34,0,0,1-4.21,3.42,11.46,11.46,0,0,1-7.11.37A36.17,36.17,0,0,1,684.4,200a53.69,53.69,0,0,0-7.72-4.09c-2.53-1.17-5.08-2.33-7.54-3.62-3.1-1.61-6.13-3.33-9.16-5a3.45,3.45,0,0,1-1-1C658.89,186.14,659,185.88,659.12,185.32Z"/><path class="cls-1" d="M644.8,167l1.79,1.62c1.54,1.37,3,2.78,4.64,4.09s3.5,2.71,5.31,4c2.08,1.48,4.2,2.92,6.32,4.35,1.86,1.25,3.86,2.26,6.29,1.83a14.21,14.21,0,0,0,3.33-1.06,8.07,8.07,0,0,1,8,.76c1.64,1,3.06,2.35,4.6,3.51a18.46,18.46,0,0,0,2.32,1.61c2.5,1.39,2.64,2.27.46,4a9.14,9.14,0,0,1-5.63,2c-3.63.12-6.49-1.33-9.27-3.07a47.78,47.78,0,0,1-7.16-5.76,32.3,32.3,0,0,0-4.46-3.45c-2.56-1.64-5-3.45-7.47-5.19a65,65,0,0,1-7.89-6.57c-.43-.41-1-.74-1.4-1.16S644.16,167.59,644.8,167Z"/><path class="cls-1" d="M634.27,145.48,637,149.2c1.13,1.53,2.24,3.07,3.4,4.59a71.19,71.19,0,0,0,7,7.76c.77.74,1.53,1.49,2.29,2.24,2.35,2.33,5.2,2.71,8.36,1.67a5.81,5.81,0,0,1,4.3.15,8.46,8.46,0,0,1,4.48,3.5,11.05,11.05,0,0,0,1.76,1.95c1.24,1.31,2.48,2.63,3.76,3.9.73.74.81,1.27-.06,1.86-2.8,1.88-5.84,2.9-9.28,1.56a17.56,17.56,0,0,1-3.93-2.08,32.28,32.28,0,0,1-7.81-8.28,47.39,47.39,0,0,0-5.47-6.23c-1.09-1.14-2.17-2.27-3.22-3.44-.77-.84-1.49-1.72-2.2-2.61a52.38,52.38,0,0,1-5.26-7.22,19.72,19.72,0,0,0-1.37-1.71C633.4,146.29,633.45,145.81,634.27,145.48Z"/><path class="cls-1" d="M709,199.66c-2.46-1.35-4.79-2.58-7.06-3.9a21.86,21.86,0,0,1-3.49-2.21,5.21,5.21,0,0,1-1.8-5.33,12.19,12.19,0,0,1,.7-2.17,6,6,0,0,0-1-6.39,42.51,42.51,0,0,1-4.75-6.9c-.55-1.1-1.45-2-2.11-3.11-.5-.79-.84-1.66-1.29-2.48s-.85-1.46-1.32-2.17c-.33-.5-.35-.49.21-1.29a2.93,2.93,0,0,1,1.38,1.42c.64,1.35,1.48,2.63,2.26,3.94a14.52,14.52,0,0,1,1.06,1.7,29.92,29.92,0,0,0,3.34,5.06c.31.44.56.91.87,1.36,1.53,2.18,3.89,3.59,6,5.21a69.29,69.29,0,0,1,5.68,4.46,10.49,10.49,0,0,1,3.49,5.57,9.55,9.55,0,0,1-1.26,6.41C709.68,199.2,709.21,199.44,709,199.66Z"/><path class="cls-1" d="M634.06,132.87c.23.23.42.34.47.48a24.39,24.39,0,0,0,2.48,5q1.53,2.59,3,5.22a7.54,7.54,0,0,0,6.88,3.12,6.48,6.48,0,0,1,5.66,1.64,10.75,10.75,0,0,1,3.1,4.45,38.64,38.64,0,0,0,3.43,5.84c.49.8.57,1.37-.24,1.76a10,10,0,0,1-6,1.12,10.67,10.67,0,0,1-6.19-3.37,23,23,0,0,1-4.28-6.45c-.8-1.71-1.61-3.41-2.39-5.12-.34-.77-.59-1.57-1-2.33s-.92-1.51-1.35-2.28c-.54-1-1-2-1.59-2.93-.92-1.37-1.26-3-2.35-4.28C633.3,134.17,633.38,133.52,634.06,132.87Z"/><path class="cls-1" d="M656,58.21a9.64,9.64,0,0,1-.37,1.07c-1.36,2.89-2.78,5.77-4.07,8.69-.67,1.51-1,3.14-1.74,4.63a25.31,25.31,0,0,0-1.83,6,4.54,4.54,0,0,0,1.77,4.92c.31.22.54.51.84.74,2.37,1.84,3.15,4.12,2.32,6.8-.42,1.36-1,2.67-1.47,4-.5,1.52-1,3.06-1.39,4.61s-1.07,1.76-2.56,1.19c-2-.75-3.69-1.74-4.56-3.59a9.64,9.64,0,0,1-1-4.66,24,24,0,0,1,2.06-8.27c.78-1.77,1.69-3.49,2.5-5.25a20,20,0,0,0,1.61-4.38,29.28,29.28,0,0,1,1.55-4.41c.58-1.55,1.16-3.1,1.84-4.62,1-2.26,2.08-4.5,3.17-6.73a4.91,4.91,0,0,1,.82-1Z"/><path class="cls-1" d="M673.36,42c.23.81-.42,1.36-.86,2-1.68,2.34-3.47,4.63-5.07,7s-3.13,5-4.65,7.56c-.46.77-.75,1.63-1.16,2.44-.92,1.79-.25,3.35.84,4.85.27.37.59.72.86,1.08a5.54,5.54,0,0,1,.61,5.71,20.2,20.2,0,0,1-3,4.57c-.88,1.22-1.63,2.52-2.43,3.79-.15.23-.24.49-.4.71-.48.65-.82.69-1.58.32a8.73,8.73,0,0,1-3.87-3.92,2.62,2.62,0,0,1-.3-1,12,12,0,0,1,1-6.64,41.32,41.32,0,0,1,5.29-8,36.2,36.2,0,0,0,4.14-6,107.49,107.49,0,0,1,8.77-13.23A12.39,12.39,0,0,1,673,41.85Z"/><path class="cls-1" d="M638.69,90.18c.14.15.24.21.24.27.09,1.55.19,3.09.24,4.64q0,1.53-.06,3.06c-.22,3.08,1.44,5.13,4.36,6.52.61.29,1.17.65,1.76,1a4.24,4.24,0,0,1,1.91,2.76,11.57,11.57,0,0,1,.18,5.14,35.25,35.25,0,0,0-.16,4.37c0,.48,0,1,0,1.46,0,1.78-.53,2.18-2.55,2-3.34-.38-5.68-2-6.85-4.79a16.24,16.24,0,0,1-1.13-9.12c.44-2.53.92-5.06,1.35-7.6.1-.65.06-1.32.1-2q.18-3.51.39-7A2.58,2.58,0,0,1,638.69,90.18Z"/><path class="cls-1" d="M693.22,29.21a5.18,5.18,0,0,1-.45,1,10.05,10.05,0,0,1-1.14,1.22,101.39,101.39,0,0,0-11.2,12c-.25.32-.58.59-.86.9a5.38,5.38,0,0,0-1.06,6.33,11.83,11.83,0,0,1,.89,2,5.23,5.23,0,0,1,.21,2.21,9.7,9.7,0,0,1-3.83,5.68c-.62.5-1.25,1-1.82,1.55-1,1-2,2-3,3-.7.69-.94.69-1.69,0-2.79-2.44-3.36-5.42-2-8.95a18.35,18.35,0,0,1,4.84-6.47c1.75-1.68,3.76-3.14,5.51-4.82,1.31-1.25,2.39-2.7,3.6-4,2-2.2,4-4.38,6-6.57.56-.61,1.15-1.21,1.7-1.84A36.89,36.89,0,0,1,692.79,29Z"/><path class="cls-1" d="M636.14,120.65a6.37,6.37,0,0,0,2.57,3.78,6.61,6.61,0,0,0,3,1.34,14.7,14.7,0,0,1,3.1.88,4.31,4.31,0,0,1,1.63,1.29,8.3,8.3,0,0,1,1.67,3.64c.28,1.48.91,2.9.84,4.43a2.84,2.84,0,0,0,.39,1c.41,1,.86,2.05,1.21,3.1.23.7-.24,1.32-1.2,1.58a9.1,9.1,0,0,1-10.45-4.44,27.23,27.23,0,0,1-2.47-6.35,11.72,11.72,0,0,1-.31-2c-.25-2.19-.51-4.39-.7-6.59a6.59,6.59,0,0,1,.26-1.63Z"/><path class="cls-1" d="M678.32,158.29c.6,0,.83.22,1,.73.48,1.31,1.07,2.6,1.59,3.9.4,1,.74,2.05,1.13,3.07a1.69,1.69,0,0,0,.38.52c2.31,2.41,4.65,4.81,6.93,7.24a19.06,19.06,0,0,1,3,3.92c1.92,3.48,1.47,6.77-.73,10a1.35,1.35,0,0,1-2,.48,3,3,0,0,1-1.17-.79,8.94,8.94,0,0,0-2.63-2.09,17.51,17.51,0,0,1-5.15-4.87,5,5,0,0,1-.2-5.1c.3-.6.74-1.16,1-1.77a25.7,25.7,0,0,0,1.06-2.89c.39-1.34-.58-2.46-.9-3.69a15.62,15.62,0,0,0-1.2-2.18c-.48-1.07-.85-2.18-1.26-3.27-.06-.16,0-.41-.14-.5-1-.76-.75-1.75-.67-2.71Z"/><path class="cls-1" d="M686.2,51.53c-1.53-2-2.43-3.9-2.21-6.14a9.53,9.53,0,0,1,3.23-6,37.77,37.77,0,0,1,8-5.82,34.92,34.92,0,0,0,5.55-4.37c3-2.58,6.21-5,9.34-7.55,1-.79,2-1.6,3-2.36a8.6,8.6,0,0,1,1.32-.64,1.34,1.34,0,0,1-.71,1.63c-2,1.51-4.14,3-6.1,4.61-3,2.49-5.85,5.13-8.86,7.61-2.17,1.77-2.36,3.92-1.68,6.2,1,3.4.18,5.41-3,7.57-2.15,1.46-4.53,2.69-6.32,4.57C687.48,51.22,686.79,51.3,686.2,51.53Z"/><path class="cls-1" d="M705,40a7.64,7.64,0,0,1,1.4-10.82,38.82,38.82,0,0,1,10-5.76,37.57,37.57,0,0,0,5.82-3.4c2-1.32,4-2.77,6-4.07,2.33-1.48,4.74-2.87,7.11-4.3.45-.28.87-.59,1.49-.22,0,.56-.29.85-.79,1.15-2.76,1.62-5.53,3.23-8.23,4.93-2.42,1.52-4.77,3.13-7.11,4.75a11.85,11.85,0,0,0-2.25,1.9,4.33,4.33,0,0,0-1.16,4.09c.76,3-.25,5.43-3.07,7.19-.84.52-1.87.79-2.77,1.24C709.3,37.78,707.17,38.88,705,40Z"/><path class="cls-1" d="M667.81,106.18a6.52,6.52,0,0,1-.49,1.15,62.75,62.75,0,0,0-5.31,9.79,24.31,24.31,0,0,0-1.18,3.14,9.67,9.67,0,0,0-.26,2.63c.06,2.65.41,5.32.24,8s-.8,5.38-3.18,7.38a11.79,11.79,0,0,1-4.25,2.35c-1,.29-1.35.12-1.71-.72a3,3,0,0,1-.15-.51c-.54-2.2-1.14-4.39-1.61-6.6a7.3,7.3,0,0,1,1-5.66,4,4,0,0,1,2.1-1.61c1.1-.39,2.17-.85,3.25-1.27a5.54,5.54,0,0,0,3.36-3.51,59.28,59.28,0,0,1,4.34-9.88c.71-1.22,1.44-2.43,2.22-3.61a10.05,10.05,0,0,1,1.19-1.26Z"/><path class="cls-1" d="M673.13,91.23a1.46,1.46,0,0,1-.59,1.67c-1.34,1.3-2.76,2.54-4,3.92-1.84,2.07-3.56,4.24-5.28,6.39a10.58,10.58,0,0,0-1.7,4.07,81.39,81.39,0,0,1-2.6,8.16c-1.48,3.74-4.81,5.44-9.06,5.87-.91.09-1.2-.1-1.23-.93a35.31,35.31,0,0,1,0-3.71c.1-1.68.29-3.34.49-5a6.7,6.7,0,0,1,.47-1.39c1-2.5,3-3.62,5.86-3.69a7.62,7.62,0,0,0,4.9-1.6,6.89,6.89,0,0,0,1.29-1.41,63.66,63.66,0,0,1,10.09-11.42A11.85,11.85,0,0,1,673.13,91.23Z"/><path class="cls-1" d="M670.68,151.63c.18.06.26.06.27.09,1.09,2.89,3,5.36,4.69,8a18,18,0,0,1,2.88,7c.38,2.87-.92,5.28-3,7.4a8.51,8.51,0,0,1-1.28.9,3.65,3.65,0,0,1-.53-.39c-1.79-2-3.48-4-5.39-5.94a9.45,9.45,0,0,1-2-3c-1.05-2.32-.3-4.22,1.36-6,.54-.58,1.12-1.13,1.59-1.75a4.81,4.81,0,0,0,1-3.9,6.12,6.12,0,0,1,0-1.71A2.24,2.24,0,0,1,670.68,151.63Z"/><path class="cls-1" d="M759.67,6.38a4,4,0,0,1-.9.89c-3.48,1.74-7,3.44-10.49,5.18-2.15,1.07-4.28,2.19-6.39,3.33a5.47,5.47,0,0,0-3.22,5.92,4.92,4.92,0,0,1-2.86,5.17,26.25,26.25,0,0,1-3.09,1.25l-7.37,2.65a1.34,1.34,0,0,1-.94-1.25,21.75,21.75,0,0,1-.19-4.1c.26-2.21,1.87-3.77,3.75-5.06a27.09,27.09,0,0,1,6.37-3.11c1.75-.61,3.59-1,5.29-1.73,2-.81,3.81-1.86,5.7-2.81,2.53-1.27,5-2.58,7.61-3.82,2-1,4-1.83,6-2.74a1.18,1.18,0,0,1,.42,0Z"/><path class="cls-1" d="M683.1,77.83a4.86,4.86,0,0,1-.9,1.06c-1.45,1-3,1.92-4.43,2.89a60.19,60.19,0,0,0-7.58,5.72,16.06,16.06,0,0,0-2.49,3.1c-1.38,2.1-2.59,4.28-4,6.39a10.47,10.47,0,0,1-4.9,4.29,12.73,12.73,0,0,1-6.7.54.83.83,0,0,1-.83-.93,4.14,4.14,0,0,1,.19-1c.92-2.43,1.78-4.89,2.83-7.27a6.25,6.25,0,0,1,3.44-3.33,5.81,5.81,0,0,1,4-.18,6.15,6.15,0,0,0,6-1.14,106.11,106.11,0,0,1,10.94-8.12c1.27-.82,2.59-1.56,3.89-2.34Z"/><path class="cls-1" d="M695.78,66c-.6.34-1.17.73-1.8,1-3.63,1.67-7.3,3.28-10.9,5A18.22,18.22,0,0,0,677,76.86a33.08,33.08,0,0,1-6.85,6.21,10.08,10.08,0,0,1-7.37,1.29,11.61,11.61,0,0,1-2.29-.56c-1.34-.5-1.47-1.07-.68-2.17,1.1-1.52,2.21-3,3.25-4.6a12.27,12.27,0,0,1,2.1-2.7c2.27-2,4.21-2.36,7.16-1.34a23.76,23.76,0,0,0,3.1.87c2,.38,3.51-.65,5.1-1.46,3.21-1.64,6.42-3.3,9.66-4.89,1.25-.61,2.59-1.09,3.9-1.58a9.3,9.3,0,0,1,1.5-.32Z"/><path class="cls-1" d="M746.23,24.09a8.9,8.9,0,0,1-.09-5.63,7.89,7.89,0,0,1,4.06-4.26A29,29,0,0,1,755.73,12c2.38-.69,4.89-1,7.3-1.67a48.65,48.65,0,0,0,4.62-1.75c2.34-.9,4.67-1.83,7-2.73,1.76-.67,3.52-1.33,5.3-2,.86-.3,1.75-.53,2.72-.82.25.66-.17.89-.76,1.1-1.32.45-2.62.94-3.93,1.43-2.12.8-4.25,1.58-6.36,2.41-1.67.64-3.33,1.3-5,2A38.1,38.1,0,0,0,763,11.92a4.25,4.25,0,0,0-2.17,3.6c0,.17,0,.35,0,.53-.23,3.49-2.06,5.26-5.88,6a34.53,34.53,0,0,0-7.39,1.87A5.42,5.42,0,0,1,746.23,24.09Z"/><path class="cls-1" d="M710.84,55.26c0,.69-.4.89-.93,1a27.54,27.54,0,0,0-5.17,1.46c-1.35.4-2.75.66-4.09,1.08-1.76.56-3.46,1.24-5.2,1.83-2.18.74-3.69,2.32-5.51,3.5C688.5,65,687.11,66,685.69,67a16.51,16.51,0,0,1-5.45,2.32,6.22,6.22,0,0,1-3.79-.17c-1.17-.47-2.38-.87-3.48-1.44-1.33-.69-1.35-1.21-.33-2.18,2-1.86,3.88-3.76,5.88-5.59a6.54,6.54,0,0,1,4.68-1.72,8.43,8.43,0,0,1,2.42.51,13,13,0,0,1,2.22,1.07,7.41,7.41,0,0,0,6.14.39q3.21-1,6.4-2c.78-.25,1.54-.57,2.32-.81,1.43-.46,2.86-.94,4.32-1.32C708.23,55.72,709.49,55.53,710.84,55.26Z"/><path class="cls-1" d="M662.59,136.52l1.22,1.73a1.7,1.7,0,0,1,.19.35c.92,2.93,2,5.82,2.68,8.8a17.06,17.06,0,0,1,0,5.66,6,6,0,0,1-1.46,2.85,18.89,18.89,0,0,1-3,2.58c-.94.7-1.36.55-1.89-.41a40.62,40.62,0,0,0-2.9-5,8.87,8.87,0,0,1-1.83-5.18A4.84,4.84,0,0,1,658,143.4c.75-.51,1.44-1.08,2.18-1.6a4.82,4.82,0,0,0,2.26-4.26A7.66,7.66,0,0,1,662.59,136.52Z"/><path class="cls-1" d="M768.5,19.55a3.3,3.3,0,0,1-.37-1,22.5,22.5,0,0,1,.15-3.18c.34-2.27,2.08-3.7,4.08-4.8a23.41,23.41,0,0,1,5.52-1.84,67.83,67.83,0,0,1,7.75-1.09,23.58,23.58,0,0,0,5.74-1.52,7.69,7.69,0,0,1,2.24-.61c1.39-.11,2.5-.93,3.92-1a19.88,19.88,0,0,0,3.8-1c1.32-.38,2.61-.79,3.93-1.16.15-.05.35.06.6.1-.14.67-.67.75-1.19.88-2.47.59-4.93,1.17-7.38,1.81-1.69.43-3.35.94-5,1.45-.73.23-1.43.56-2.15.8a14.38,14.38,0,0,0-4.93,2.26,5.53,5.53,0,0,0-1.91,2.92,5.61,5.61,0,0,0-.17.91c-.23,3.08-3,4.4-5.61,4.82-1.65.27-3.33.32-5,.54C771.21,19,769.92,19.28,768.5,19.55Z"/><path class="cls-1" d="M717.4,48.68a5,5,0,0,1-1.64.69c-3.17,0-5.74,1.34-8.35,2.71-2.38,1.26-4.82,2.43-7.31,3.49a13.65,13.65,0,0,1-4,1,9.86,9.86,0,0,1-7.9-3c-.58-.55-.51-1.21.23-1.7a87,87,0,0,1,8.06-5.18,6,6,0,0,1,6.67.5,10.4,10.4,0,0,1,1.08.91c1.84,1.64,4.17,1.66,6.53,1.58,1-.65,2.17-.45,3.27-.6a4.19,4.19,0,0,0,1.5-.48,2.4,2.4,0,0,1,1.67-.25Z"/><path class="cls-1" d="M728.73,41.5a9,9,0,0,1-1.56,1c-2.8,1-5.61,2-8.46,2.88a15.8,15.8,0,0,1-3.9.79,9.21,9.21,0,0,1-7.38-2.78,8.45,8.45,0,0,1-1-1.29c-.44-.7-.3-1.18.46-1.56,2.62-1.32,5.23-2.68,7.9-3.92a6.28,6.28,0,0,1,7.18,1.21,10.05,10.05,0,0,0,4,2.85c.52.16,1,.25,1.57.39C727.84,41.19,728.14,41.3,728.73,41.5Z"/><path class="cls-1" d="M748,36.13c-.19.45-.83.51-1.37.58-2.68.37-5.38.69-8,1.08a27.76,27.76,0,0,1-4.39.28c-3.66,0-6.1-1.07-7.85-2.65-.6-.54-.29-.94.84-1.18,1.69-.37,3.4-.7,5.1-1.05l1.08-.26a13.8,13.8,0,0,1,6.7-.13,4.87,4.87,0,0,1,1.6.77,10.75,10.75,0,0,0,2.67,1.65,8.61,8.61,0,0,0,2.62.69A8.71,8.71,0,0,1,748,36.13Z"/><path class="cls-1" d="M768.06,30.08c-.06.8-.67,1-1.25,1-4.15.57-8.31,1.32-12.53.9-2.55-.25-4.76-1.2-6-3.43-.3-.56-.63-1.1-1-1.64-.61-.92-.39-1.66.71-1.94,2-.49,3.93-.91,5.89-1.37a7.15,7.15,0,0,0,1.56-.41c2-1.08,5.82-.09,7,1.9.26.42.56.83.8,1.27a6.31,6.31,0,0,0,3.75,3.22A8.89,8.89,0,0,1,768.06,30.08Z"/><path class="cls-1" d="M788.37,27.26c0,.71-.57.9-1.18,1a18.15,18.15,0,0,1-2.21.2c-2.48,0-5,.08-7.43,0s-5-.74-6.73-2.63a10.74,10.74,0,0,1-2.14-3.88c-.22-.66.2-1.23,1-1.36l7.59-1.18a9.6,9.6,0,0,1,4.37.5A3.94,3.94,0,0,1,784,22.18,16.77,16.77,0,0,0,786,25.53,12.22,12.22,0,0,0,788.37,27.26Z"/><path class="cls-1" d="M974.53,71.34c1.16.09,1.07,1,1.73,1.45C975.1,73,974.9,72.81,974.53,71.34Z"/><path class="cls-1" d="M572,111.89c-.24-.1-.48-.18-.71-.3a1.37,1.37,0,0,1,.13-.32l.74.27Z"/><path class="cls-1" d="M768.66,21a4.47,4.47,0,0,0,0,1.22,29,29,0,0,0,1.29,3.4c1.13,2.36,3.3,3.38,5.59,3.94a22,22,0,0,0,5.91.28,58.61,58.61,0,0,0,7.74-1.25,21.63,21.63,0,0,1,6-.14,6.8,6.8,0,0,0,2.34,0c1.36-.31,2.71.23,4.1-.09a18.06,18.06,0,0,1,4-.12c1.38,0,2.76,0,4.14,0,.16,0,.32-.18.53-.3-.37-.69-.9-.6-1.44-.58-2.55.13-5.11.27-7.66.34-1.76.05-3.52,0-5.28,0-.78,0-1.56-.16-2.34-.19a13.68,13.68,0,0,1-5.49-.92A6.37,6.37,0,0,1,785.22,24a6.45,6.45,0,0,1-.49-.94c-1.32-3.27-4.4-3.85-7.06-3.48-1.65.22-3.27.69-4.92,1C771.44,20.78,770.11,20.86,768.66,21Z"/></g></g></svg>